<svg id="Capa_1" data-name="Capa 1" xmlns="http://www.w3.org/2000/svg" xmlns:xlink="http://www.w3.org/1999/xlink" viewBox="0 0 841.89 251.5">
  <defs>
    <style>
      .cls-1, .cls-2, .cls-5, .cls-9 {
        fill: none;
      }

      .cls-2 {
        clip-rule: evenodd;
      }

      .cls-3 {
        clip-path: url(#clip-path);
      }

      .cls-10, .cls-4 {
        fill: #fff;
      }

      .cls-4, .cls-6 {
        fill-rule: evenodd;
      }

      .cls-5 {
        stroke: #fff;
        stroke-width: 0.216px;
      }

      .cls-5, .cls-9 {
        stroke-miterlimit: 22.926;
      }

      .cls-6 {
        fill: #628cc2;
      }

      .cls-7 {
        clip-path: url(#clip-path-2);
      }

      .cls-8 {
        fill: #be0411;
      }

      .cls-9 {
        stroke: #be0411;
        stroke-width: 0.567px;
      }
    </style>
    <clipPath id="clip-path">
      <polygon class="cls-1" points="0 251.5 841.89 247 841.89 0 0 3.5 0 251.5"/>
    </clipPath>
    <clipPath id="clip-path-2">
      <path class="cls-2" d="M69.23,143.751l40.807,40.807a9.043,9.043,0,0,0,12.752,0L163.6,143.751a9.043,9.043,0,0,0,0-12.752L122.789,90.193a9.043,9.043,0,0,0-12.752,0L69.23,131a9.044,9.044,0,0,0,0,12.752"/>
    </clipPath>
  </defs>
  <title>LOGOVECTORblanco[1533]</title>
  <g class="cls-3">
    <path class="cls-4" d="M67.183,147.07l39.789,39.566a13.876,13.876,0,0,0,19.488,0l39.789-39.565a13.687,13.687,0,0,0,0-19.378L126.46,88.127a13.876,13.876,0,0,0-19.488,0L67.184,127.692a13.688,13.688,0,0,0,0,19.378"/>
    <path class="cls-4" d="M155.816,50.162h0a7.818,7.818,0,0,1,0,11.024l-26.3,26.3-2.45-2.437a14.712,14.712,0,0,0-13.187-3.975l30.908-30.908A7.818,7.818,0,0,1,155.816,50.162Z"/>
    <path class="cls-5" d="M155.816,50.162h0a7.818,7.818,0,0,1,0,11.024l-26.3,26.3-2.45-2.437a14.712,14.712,0,0,0-13.187-3.975l30.908-30.908A7.818,7.818,0,0,1,155.816,50.162Z"/>
    <path class="cls-4" d="M187.167,51.173h0a7.818,7.818,0,0,1,0,11.025l-41.42,41.42L134.692,92.624l41.451-41.451A7.818,7.818,0,0,1,187.167,51.173Z"/>
    <path class="cls-5" d="M187.167,51.173h0a7.818,7.818,0,0,1,0,11.025l-41.42,41.42L134.692,92.624l41.451-41.451A7.818,7.818,0,0,1,187.167,51.173Z"/>
    <path class="cls-4" d="M203.685,98.031h0a7.819,7.819,0,0,1,0,11.024L173.5,139.24a14.506,14.506,0,0,0-4.152-12.154l-2.88-2.864,26.192-26.192A7.818,7.818,0,0,1,203.685,98.031Z"/>
    <path class="cls-5" d="M203.685,98.031h0a7.819,7.819,0,0,1,0,11.024L173.5,139.24a14.506,14.506,0,0,0-4.152-12.154l-2.88-2.864,26.192-26.192A7.818,7.818,0,0,1,203.685,98.031Z"/>
    <path class="cls-4" d="M203.011,67.017h0a7.819,7.819,0,0,1,0,11.025l-41.375,41.375L150.58,108.423l41.406-41.406A7.818,7.818,0,0,1,203.011,67.017Z"/>
    <path class="cls-5" d="M203.011,67.017h0a7.819,7.819,0,0,1,0,11.025l-41.375,41.375L150.58,108.423l41.406-41.406A7.818,7.818,0,0,1,203.011,67.017Z"/>
    <path class="cls-6" d="M69.23,143.751l40.807,40.807a9.043,9.043,0,0,0,12.752,0L163.6,143.751a9.043,9.043,0,0,0,0-12.752L122.789,90.193a9.043,9.043,0,0,0-12.752,0L69.23,131a9.044,9.044,0,0,0,0,12.752"/>
    <g class="cls-7">
      <path class="cls-4" d="M79.389,111.62a54.468,54.468,0,0,0,15.34,14.564c12.036-2.356,24.072-1.721,36.109-4.077,12.811,2.85,27.3,8.332,38.243,18.961l-2.565,7.695c-9.917-9.8-19.7-20.039-31.972-22.234l-.948,3.447c6.862-.339,18.264,7.494,34.127,23.354-2.126,2.729-6.084,5.844-8.209,8.573-8.085-10.215-14.444-19.733-23.418-24.947l-7.153,2.413c10.571-.319,20.756,12.91,30.942,28.662-4.74,1.35-10.058,3.375-14.8,4.725-5.421-13.929-11.147-21.8-19.074-26.149L95.073,134.974c-7.813-5.487-15.2-11.146-23.009-16.632l7.325-6.722"/>
    </g>
    <path class="cls-4" d="M116.025,109.492a27.62,27.62,0,1,1-27.62,27.62,27.621,27.621,0,0,1,27.62-27.62"/>
    <circle class="cls-8" cx="116.025" cy="137.112" r="25.465"/>
    <circle class="cls-9" cx="116.025" cy="137.112" r="25.465"/>
    <path class="cls-4" d="M78.955,100.053h0a7.819,7.819,0,0,1,0,11.025C73.171,116.863,67.069,121.7,61.6,128.432c-2.555,4.123-2.591,5.52-1.381,11.8-7.556-6.431-14.595-19.322-5.2-27.207l12.912-12.969A7.813,7.813,0,0,1,78.955,100.053Z"/>
    <path class="cls-5" d="M78.955,100.053h0a7.819,7.819,0,0,1,0,11.025C73.171,116.863,67.069,121.7,61.6,128.432c-2.555,4.123-2.591,5.52-1.381,11.8-7.556-6.431-14.595-19.322-5.2-27.207l12.912-12.969A7.813,7.813,0,0,1,78.955,100.053Z"/>
    <path class="cls-4" d="M114.1,143.6h6.077v5.575a1.393,1.393,0,0,0,1.389,1.389H126.4a1.393,1.393,0,0,0,1.389-1.389V143.6h5.761a2.369,2.369,0,0,0,2.362-2.362h0c0-.739-8.518-13.472-9.595-15.187-.69-1.1-1.378-2.362-2.362-2.362h0c-.984,0-1.843,1.341-2.5,2.318L112.2,139.839a2.347,2.347,0,0,0-.459,1.4h0A2.369,2.369,0,0,0,114.1,143.6"/>
    <path class="cls-4" d="M98.644,143.6h6.077v5.575a1.393,1.393,0,0,0,1.389,1.389h4.838a1.393,1.393,0,0,0,1.389-1.389v-3.9l-.406-.234a4.178,4.178,0,0,1-1.525-5.69l4.293-7.438c-1.787-2.733-3.4-5.174-3.833-5.859-.691-1.1-1.378-2.362-2.362-2.362h0c-.984,0-1.842,1.341-2.5,2.318l-9.265,13.837a2.347,2.347,0,0,0-.459,1.4h0a2.369,2.369,0,0,0,2.362,2.362"/>
    <polygon class="cls-10" points="307.902 161.156 307.902 96.094 324.302 96.094 343.964 127.521 343.964 96.094 358.597 96.094 358.597 161.156 343.228 161.156 321.803 121.793 322.277 161.156 307.902 161.156"/>
    <path class="cls-10" d="M268.658,134.1h10.719l-5.3-17.732Zm-21.191,27.06,18.554-65.062h19.245l18.875,65.062h-18.7l-3.313-12.895h-16.3l-3.305,12.895Z"/>
    <path class="cls-10" d="M194.387,142.381l17.1-3.3c.456,2.277,3.023,5.069,4.228,6.064,2.353,1.945,9.563,2.432,12.325.469a6.6,6.6,0,0,0,1.142-1.49c1.434-2.917-1.12-4.952-4.435-6.1a50.552,50.552,0,0,0-5.219-1.218c-3.92-1.19-8.968-2.347-11.354-3.791-13.548-5.7-14.766-22.765-4.458-32.038,3.963-3.565,11.777-6.184,18.726-6.184,6.837,0,12.467,1.665,16.384,5.081s5.229,5.12,7.7,11.023l-15.179,4.794c-1.911-5.768-10.986-8.05-14.307-4.945-4.5,6.062,5.31,8.058,11.163,8.862,11.787,2.28,20.021,8.167,19.944,20.837a22.43,22.43,0,0,1-7.551,15.794c-4.106,3.732-12.494,5.141-20.157,5.141-7.059,0-13.348-1.173-17.476-4.909-4.48-3.4-7.164-8.828-8.571-14.083"/>
    <polygon class="cls-10" points="657.687 161.156 657.687 148.337 684.108 111.215 659.734 111.078 659.734 96.094 706.718 96.094 706.718 108.657 680.765 145.737 707.711 145.649 707.711 161.156 657.687 161.156"/>
    <polygon class="cls-10" points="601.939 161.156 601.939 96.094 619.491 96.094 635.285 123.461 639.575 131.991 638.504 117.775 638.219 96.094 653.018 96.094 653.018 161.156 638.228 161.156 623.096 134.423 616.285 120.81 616.91 134.262 617.004 161.156 601.939 161.156"/>
    <polygon class="cls-10" points="551.892 161.28 551.892 96.218 596.879 96.218 596.879 111.161 569.97 111.161 569.97 120.469 591.848 120.469 591.848 134.778 569.97 134.778 569.97 145.444 597.117 145.444 597.117 161.28 551.892 161.28"/>
    <path class="cls-10" d="M510.716,121.941h7.749c2.723,0,4.6-.452,5.63-1.357q1.553-1.335,1.552-4.706,0-3.461-1.552-4.8-1.552-1.357-6.062-1.357h-7.318Zm-18.47,39.214V96.094h27.992c11.3,0,22.932,2.184,24.926,16.221.688,8.823-.977,15.94-10.248,20.407l10.517,28.433-20.226.08-8.825-24.76-5.458-.124-.124,24.8Z"/>
    <path class="cls-10" d="M448.857,128.319c0,6.439.75,11.146,2.261,14.168a7.465,7.465,0,0,0,7.081,4.518,7.366,7.366,0,0,0,7.026-4.5q2.234-4.487,2.228-14.184,0-9.729-2.228-14.215a7.366,7.366,0,0,0-7.026-4.5,7.465,7.465,0,0,0-7.081,4.518c-1.511,3.022-2.261,7.745-2.261,14.2m-19.093.375q0-15.274,7.627-24.1,7.62-8.843,20.8-8.836,13.131,0,20.739,8.836t7.614,24.1q0,15.23-7.614,24.087t-20.739,8.85q-13.169,0-20.8-8.85T429.763,128.694Z"/>
    <polygon class="cls-10" points="386.886 161.156 386.886 96.094 405.078 96.094 405.078 145.212 428.512 145.212 428.512 161.156 386.886 161.156"/>
    <path class="cls-10" d="M728.515,128.319c0,6.439.75,11.146,2.261,14.168a7.465,7.465,0,0,0,7.081,4.518,7.366,7.366,0,0,0,7.026-4.5q2.234-4.487,2.228-14.184,0-9.729-2.228-14.215a7.366,7.366,0,0,0-7.026-4.5,7.465,7.465,0,0,0-7.081,4.518c-1.511,3.022-2.261,7.745-2.261,14.2m-19.093.375q0-15.274,7.627-24.1,7.62-8.843,20.8-8.836,13.131,0,20.739,8.836t7.614,24.1q0,15.23-7.614,24.087t-20.739,8.85q-13.169,0-20.8-8.85T709.422,128.694Z"/>
    <path class="cls-10" d="M757.786,189.255a4.351,4.351,0,0,0,.911,2.987,3.133,3.133,0,0,0,4.613.008,4.439,4.439,0,0,0,.9-3.027,4.343,4.343,0,0,0-.876-2.973,3.242,3.242,0,0,0-4.658.011,4.387,4.387,0,0,0-.887,3m-2.41.078a7.394,7.394,0,0,1,.531-2.976,5.426,5.426,0,0,1,1.078-1.591,4.555,4.555,0,0,1,1.5-1.046,6.384,6.384,0,0,1,2.5-.458,5.447,5.447,0,0,1,4.1,1.591,7.122,7.122,0,0,1,.011,8.824,5.391,5.391,0,0,1-4.079,1.588,5.447,5.447,0,0,1-4.111-1.58A6,6,0,0,1,755.376,189.333Zm-15.164,5.721v-9.624h-3.429v-1.957h9.188v1.957h-3.413v9.624Zm-15.844,0V183.472h2.345v11.582Zm-17.919-9.624V193.1h1.739a6.369,6.369,0,0,0,1.407-.111,2.124,2.124,0,0,0,.941-.482,2.433,2.433,0,0,0,.609-1.116,7.517,7.517,0,0,0,.237-2.122,6.872,6.872,0,0,0-.237-2.06,2.644,2.644,0,0,0-.66-1.121,2.218,2.218,0,0,0-1.078-.545,10.634,10.634,0,0,0-1.911-.11Zm-2.345-1.957h4.265a8.282,8.282,0,0,1,2.2.221,3.85,3.85,0,0,1,1.742,1.068,5.038,5.038,0,0,1,1.105,1.876,8.606,8.606,0,0,1,.377,2.736,7.6,7.6,0,0,1-.356,2.464,5.082,5.082,0,0,1-1.237,2.046,4.09,4.09,0,0,1-1.639.925,7,7,0,0,1-2.065.245H704.1Zm-16.267-1.051,1.1-2.362h2.475l-2.184,2.362Zm-3.186,12.633V183.472h8.573v1.957H687V188h5.791v1.957H687V193.1h6.454v1.957Zm-18-6.68h1.73a8.94,8.94,0,0,0,2.1-.143,1.255,1.255,0,0,0,.655-.491,1.506,1.506,0,0,0,.237-.871,1.4,1.4,0,0,0-.313-.946,1.423,1.423,0,0,0-.879-.453q-.287-.04-1.706-.04H666.65Zm-2.345,6.68V183.472h4.925a8.44,8.44,0,0,1,2.7.313,2.65,2.65,0,0,1,1.348,1.108,3.344,3.344,0,0,1,.507,1.825,3.1,3.1,0,0,1-.763,2.154,3.665,3.665,0,0,1-2.283,1.07,5.347,5.347,0,0,1,1.245.971,13.132,13.132,0,0,1,1.326,1.882l1.413,2.259h-2.8l-1.677-2.529a15.976,15.976,0,0,0-1.237-1.7,1.805,1.805,0,0,0-.7-.48,3.931,3.931,0,0,0-1.183-.13h-.474v4.836Zm-12.938-4.27,2.265.7a5.141,5.141,0,0,1-1.736,2.841,4.924,4.924,0,0,1-3.076.928,4.989,4.989,0,0,1-3.8-1.577,6.041,6.041,0,0,1-1.485-4.313,6.342,6.342,0,0,1,1.494-4.494,5.118,5.118,0,0,1,3.928-1.6,4.816,4.816,0,0,1,3.453,1.259,4.569,4.569,0,0,1,1.186,2.138l-2.313.55a2.391,2.391,0,0,0-2.442-1.941,2.634,2.634,0,0,0-2.092.925,4.511,4.511,0,0,0-.8,2.992,4.853,4.853,0,0,0,.79,3.124,2.569,2.569,0,0,0,2.057.933,2.342,2.342,0,0,0,1.607-.593A3.443,3.443,0,0,0,651.367,190.783Zm-37.012,4.27v-4.874l-4.246-6.707h2.742l2.739,4.586,2.666-4.586h2.691L616.7,190.2v4.858Zm-35.553-5.8a4.351,4.351,0,0,0,.911,2.987,3.133,3.133,0,0,0,4.612.008,4.439,4.439,0,0,0,.9-3.027,4.343,4.343,0,0,0-.876-2.973,3.242,3.242,0,0,0-4.658.011A4.387,4.387,0,0,0,578.8,189.255Zm-2.41.078a7.394,7.394,0,0,1,.531-2.976A5.428,5.428,0,0,1,578,184.766a4.556,4.556,0,0,1,1.5-1.046,6.383,6.383,0,0,1,2.5-.458,5.447,5.447,0,0,1,4.1,1.591,7.122,7.122,0,0,1,.011,8.824,5.391,5.391,0,0,1-4.079,1.588,5.447,5.447,0,0,1-4.111-1.58A6,6,0,0,1,576.392,189.333Zm-17.515-.96h1.731a8.941,8.941,0,0,0,2.1-.143,1.254,1.254,0,0,0,.655-.491,1.506,1.506,0,0,0,.237-.871,1.4,1.4,0,0,0-.313-.946,1.422,1.422,0,0,0-.879-.453q-.287-.04-1.706-.04h-1.825Zm-2.345,6.68V183.472h4.925a8.44,8.44,0,0,1,2.7.313,2.651,2.651,0,0,1,1.348,1.108,3.345,3.345,0,0,1,.507,1.825,3.1,3.1,0,0,1-.763,2.154,3.665,3.665,0,0,1-2.283,1.07,5.347,5.347,0,0,1,1.246.971,13.132,13.132,0,0,1,1.326,1.882l1.413,2.259h-2.8l-1.677-2.529a15.985,15.985,0,0,0-1.237-1.7,1.805,1.805,0,0,0-.7-.48,3.93,3.93,0,0,0-1.183-.13h-.474v4.836Zm-18-6.68h1.731a8.941,8.941,0,0,0,2.1-.143,1.255,1.255,0,0,0,.655-.491,1.506,1.506,0,0,0,.237-.871,1.4,1.4,0,0,0-.313-.946,1.422,1.422,0,0,0-.879-.453q-.287-.04-1.706-.04h-1.825Zm-2.345,6.68V183.472h4.925a8.438,8.438,0,0,1,2.7.313,2.65,2.65,0,0,1,1.348,1.108,3.344,3.344,0,0,1,.507,1.825,3.1,3.1,0,0,1-.763,2.154,3.665,3.665,0,0,1-2.283,1.07,5.347,5.347,0,0,1,1.246.971,13.132,13.132,0,0,1,1.326,1.882l1.413,2.259h-2.8l-1.677-2.529a15.976,15.976,0,0,0-1.237-1.7,1.8,1.8,0,0,0-.7-.48,3.929,3.929,0,0,0-1.183-.13h-.475v4.836Zm-19.321-5.8a4.351,4.351,0,0,0,.911,2.987,3.133,3.133,0,0,0,4.612.008,4.439,4.439,0,0,0,.9-3.027,4.343,4.343,0,0,0-.876-2.973,3.243,3.243,0,0,0-4.659.011A4.387,4.387,0,0,0,516.865,189.255Zm-2.41.078a7.394,7.394,0,0,1,.531-2.976,5.424,5.424,0,0,1,1.078-1.591,4.554,4.554,0,0,1,1.5-1.046,6.383,6.383,0,0,1,2.5-.458,5.447,5.447,0,0,1,4.1,1.591,7.122,7.122,0,0,1,.011,8.824,5.391,5.391,0,0,1-4.079,1.588,5.447,5.447,0,0,1-4.111-1.58A6,6,0,0,1,514.455,189.333Zm-19.86,5.721V183.472h2.345v4.561H501.5v-4.561h2.346v11.582H501.5V189.99H496.94v5.063Zm-14.2-4.594-1.609-4.286-1.564,4.286Zm4.286,4.594h-2.526l-1-2.637H476.51l-.962,2.637h-2.48l4.5-11.582h2.477Zm-42.767,0V183.472h8.573v1.957H444.26V188h5.791v1.957H444.26V193.1h6.454v1.957Zm-18-9.624V193.1h1.739a6.371,6.371,0,0,0,1.407-.111A2.124,2.124,0,0,0,428,192.5a2.432,2.432,0,0,0,.609-1.116,7.513,7.513,0,0,0,.237-2.122,6.868,6.868,0,0,0-.237-2.06,2.644,2.644,0,0,0-.66-1.121,2.219,2.219,0,0,0-1.078-.545,10.635,10.635,0,0,0-1.911-.11Zm-2.345-1.957h4.265a8.282,8.282,0,0,1,2.2.221,3.85,3.85,0,0,1,1.742,1.068,5.038,5.038,0,0,1,1.105,1.876,8.607,8.607,0,0,1,.377,2.736,7.6,7.6,0,0,1-.356,2.464,5.082,5.082,0,0,1-1.237,2.046,4.089,4.089,0,0,1-1.639.925,7,7,0,0,1-2.065.245h-4.391Zm-27.08,6.988-1.61-4.286-1.564,4.286Zm4.286,4.594h-2.526l-1-2.637H390.6l-.962,2.637h-2.48l4.5-11.582h2.478Zm-25.724,0-4.144-11.582h2.534l2.941,8.573,2.822-8.573H379.7l-4.119,11.582Zm-16.2,0V183.472h2.345v11.582Zm-15.86,0v-9.624H337.56v-1.957h9.188v1.957h-3.413v9.624Zm-15.6-4.594-1.61-4.286-1.564,4.286Zm4.286,4.594h-2.526l-1-2.637H321.5l-.962,2.637h-2.48l4.5-11.582h2.478Zm-28.433-6.68h1.731a8.941,8.941,0,0,0,2.1-.143,1.255,1.255,0,0,0,.655-.491,1.506,1.506,0,0,0,.237-.871,1.4,1.4,0,0,0-.313-.946,1.423,1.423,0,0,0-.879-.453q-.287-.04-1.706-.04h-1.825Zm-2.345,6.68V183.472h4.925a8.44,8.44,0,0,1,2.7.313,2.65,2.65,0,0,1,1.348,1.108,3.345,3.345,0,0,1,.507,1.825,3.1,3.1,0,0,1-.763,2.154,3.665,3.665,0,0,1-2.283,1.07,5.347,5.347,0,0,1,1.246.971,13.132,13.132,0,0,1,1.326,1.882l1.413,2.259h-2.8l-1.677-2.529a15.99,15.99,0,0,0-1.237-1.7,1.806,1.806,0,0,0-.7-.48,3.931,3.931,0,0,0-1.184-.13h-.475v4.836Zm-19.453,0V183.472h8.573v1.957h-6.227V188h5.791v1.957h-5.791V193.1h6.454v1.957Zm-17.108-9.624v3.3h1.275a5.979,5.979,0,0,0,1.841-.183,1.511,1.511,0,0,0,.728-.572,1.569,1.569,0,0,0,.264-.9,1.512,1.512,0,0,0-.369-1.046,1.621,1.621,0,0,0-.938-.518,11.434,11.434,0,0,0-1.677-.078Zm-2.345,9.624V183.472h3.75a13.584,13.584,0,0,1,2.777.173,3.043,3.043,0,0,1,1.666,1.135,3.6,3.6,0,0,1,.671,2.257,3.8,3.8,0,0,1-.385,1.793,3.2,3.2,0,0,1-.981,1.143,3.389,3.389,0,0,1-1.21.547,13.293,13.293,0,0,1-2.421.167h-1.521v4.367Zm-19.322-5.8a4.351,4.351,0,0,0,.911,2.987,3.133,3.133,0,0,0,4.613.008,4.439,4.439,0,0,0,.9-3.027,4.343,4.343,0,0,0-.876-2.973,3.243,3.243,0,0,0-4.658.011A4.387,4.387,0,0,0,240.665,189.255Zm-2.41.078a7.394,7.394,0,0,1,.531-2.976,5.427,5.427,0,0,1,1.078-1.591,4.555,4.555,0,0,1,1.5-1.046,6.384,6.384,0,0,1,2.5-.458,5.447,5.447,0,0,1,4.1,1.591,7.122,7.122,0,0,1,.011,8.824,5.391,5.391,0,0,1-4.079,1.588,5.447,5.447,0,0,1-4.111-1.58A6,6,0,0,1,238.255,189.333Zm-18.836-.078a4.351,4.351,0,0,0,.911,2.987,3.133,3.133,0,0,0,4.612.008,4.439,4.439,0,0,0,.9-3.027,4.343,4.343,0,0,0-.876-2.973,3.243,3.243,0,0,0-4.658.011A4.387,4.387,0,0,0,219.419,189.255Zm-2.41.078a7.394,7.394,0,0,1,.531-2.976,5.425,5.425,0,0,1,1.078-1.591,4.555,4.555,0,0,1,1.5-1.046,6.383,6.383,0,0,1,2.5-.458,5.447,5.447,0,0,1,4.1,1.591,7.122,7.122,0,0,1,.011,8.824,5.391,5.391,0,0,1-4.079,1.588,5.447,5.447,0,0,1-4.111-1.58A6,6,0,0,1,217.009,189.333Zm-12.452,1.45,2.265.7a5.141,5.141,0,0,1-1.736,2.841,4.924,4.924,0,0,1-3.076.928,4.99,4.99,0,0,1-3.8-1.577,6.041,6.041,0,0,1-1.485-4.313,6.342,6.342,0,0,1,1.494-4.494,5.118,5.118,0,0,1,3.928-1.6,4.816,4.816,0,0,1,3.454,1.259,4.569,4.569,0,0,1,1.186,2.138l-2.313.55a2.391,2.391,0,0,0-2.442-1.941,2.635,2.635,0,0,0-2.092.925,4.512,4.512,0,0,0-.8,2.992,4.853,4.853,0,0,0,.79,3.124,2.569,2.569,0,0,0,2.057.933,2.342,2.342,0,0,0,1.607-.593A3.443,3.443,0,0,0,204.557,190.783Z"/>
    <path class="cls-10" d="M590.782,232.4l.23-.2h.088c.069,0,.166-.073.3-.215l.142-.059a1.243,1.243,0,0,1,.509-.5l.23-.171a.488.488,0,0,1,.166-.1,1.422,1.422,0,0,0,.348-.279.656.656,0,0,1,.382-.235.759.759,0,0,1,.235.029.869.869,0,0,1,.343-.338,1.425,1.425,0,0,0,.421-.4l.191-.083a1.751,1.751,0,0,0,.411-.294.619.619,0,0,1,.47-.182,1.329,1.329,0,0,1,.872.421,1.182,1.182,0,0,1,.451.813l-.245,1.122q-.242,1.234-.543,1.293l-.059.3c-.132.1-.2.176-.2.23l.088.348c0,.044-.054.118-.157.215-.02,0-.029.029-.029.083v.588a.3.3,0,0,1-.2.26.407.407,0,0,0,.083.059.576.576,0,0,1,.387-.088l.23.029.313-.313a1.268,1.268,0,0,0,.274-.137,4.065,4.065,0,0,1,.6-.279l1.861-1.44c.254-.259.451-.387.583-.387s.211.093.211.274a1.012,1.012,0,0,1-.122.524,2.659,2.659,0,0,0-.22.5.932.932,0,0,1-.235.406,1.089,1.089,0,0,0-.225.255,1.774,1.774,0,0,1-.465.392,4.56,4.56,0,0,0-.642.524,3.136,3.136,0,0,1-.441.382l-.612.441-.088.147a1.406,1.406,0,0,1-.264.122,1.525,1.525,0,0,0-.421.235l-.26.142a.581.581,0,0,1-.279.074.509.509,0,0,0-.338.167.388.388,0,0,1-.225.147l-.215-.029-.289.088a1.018,1.018,0,0,1-.593-.294.829.829,0,0,1-.353-.627v-.083l.029-.2a1.261,1.261,0,0,0-.088-.294,2.361,2.361,0,0,1-.083-.27l.029-.2-.029-.083a1.223,1.223,0,0,1,.059-.49,1,1,0,0,0,.083-.279q.03-.184.059-.294l.069-.362a.409.409,0,0,1,.147-.225c.02-.078.054-.206.113-.392l.059-.255.142-.2a.5.5,0,0,0,.137-.308.989.989,0,0,1,.152-.412.973.973,0,0,0,.127-.259.151.151,0,0,0-.171-.172,1.285,1.285,0,0,0-.358.23l-.259-.088c-.02,0-.073.049-.157.147,0,.039-.044.064-.132.083a.432.432,0,0,0-.245.215l-.112.03-.191-.083h-.054c-.1,0-.157.1-.176.314a.7.7,0,0,1-.416.3l-.313.083a.4.4,0,0,0-.23.259.812.812,0,0,1-.289.367.667.667,0,0,1-.289.167c-.269,0-.4-.147-.4-.446l.117-.671Zm6.2-7.18-.088-.558v-.088c0-.446.152-.7.46-.744a6.185,6.185,0,0,0,.6-.186,1.033,1.033,0,0,1,.539.45,1.265,1.265,0,0,1,.279.7.419.419,0,0,1-.044.128,1.267,1.267,0,0,0-.059.382.651.651,0,0,1-.279.49.9.9,0,0,1-.563.206.879.879,0,0,1-.514-.279A.911.911,0,0,1,596.982,225.224Zm-14.81,7.992v-.147a1.822,1.822,0,0,1,.289-.617,1.4,1.4,0,0,1,.656-.617c.02,0,.029,0,.029-.024l-.029-.23c.039-.039.132-.162.289-.372s.3-.3.441-.274a1.426,1.426,0,0,1,.4-.382,1.758,1.758,0,0,0,.446-.392l.529-.333a1.846,1.846,0,0,1,.818-.372h.216a.509.509,0,0,1,.456-.284.538.538,0,0,1,.357.083.085.085,0,0,0,.059.029,1.11,1.11,0,0,0,.171-.113.636.636,0,0,1,.387-.118,5.267,5.267,0,0,1,.646.23.49.49,0,0,1,.328-.172.475.475,0,0,1,.2.088,2.744,2.744,0,0,0,.294.152c.1.044.2.22.294.534a3.834,3.834,0,0,1,.142.524c0,.157-.122.338-.377.544a1.163,1.163,0,0,1-.71.308c-.074,0-.171-.069-.284-.2a3.538,3.538,0,0,1-.73-.216,2.027,2.027,0,0,0-.617.216h-.029l-.128-.118-.117-.024h-.03a1.7,1.7,0,0,0-.112.2,1.61,1.61,0,0,1-.392.206.636.636,0,0,0-.27.156,1.1,1.1,0,0,1-.333.225.789.789,0,0,0-.353.314,1.942,1.942,0,0,1-.416.186h-.083a5.876,5.876,0,0,1-.529.759l-.372.617c-.088.074-.191.162-.318.265s-.186.186-.186.264a.756.756,0,0,0,.029.142v.147c0,.054-.044.122-.137.206s-.137.142-.137.181l.029.314-.113.5c0,.3.216.446.647.446h.211l.617-.1c.2-.025.372-.054.5-.083a2.052,2.052,0,0,1,.23-.044,1.147,1.147,0,0,0,.23-.156h.142l.127-.029c.039-.2.314-.367.818-.5a1.032,1.032,0,0,1,.583-.377,2.082,2.082,0,0,0,.827-.524h.216a.928.928,0,0,0,.264-.166,2.273,2.273,0,0,1,.46-.264.867.867,0,0,0,.294-.172.417.417,0,0,1,.216-.127,1.1,1.1,0,0,1,.617-.5l.054-.059c.157-.132.25-.2.289-.2l.171.03c.1,0,.157-.059.181-.176s.176-.284.455-.49a1.549,1.549,0,0,1,.539-.308c.181,0,.274.093.274.284,0,.147-.083.225-.245.245a2.379,2.379,0,0,1,.157.416.6.6,0,0,1-.47.617.093.093,0,0,0-.059.083l-.029.259c.01,0,.01.01,0,.025s-.029.034-.059.064l-.211.029-.059.083a3.653,3.653,0,0,0-.734.588l-.284.3h-.044c-.1-.1-.172-.147-.23-.147-.039,0-.088.069-.142.2a2.361,2.361,0,0,1-.705.558,1.153,1.153,0,0,0-.3.23l-.289.186h-.215a.409.409,0,0,0-.079.122.818.818,0,0,1-.25.235,1.52,1.52,0,0,0-.308.279.538.538,0,0,1-.269.181l-.255-.059a.493.493,0,0,1-.475.23,1.877,1.877,0,0,0-.25.221c-.112.113-.186.166-.225.166a1.01,1.01,0,0,1-.3-.172h-.029c-.1,0-.142.073-.142.215s-.088.22-.269.23a1.109,1.109,0,0,0-.495.142h-.03a.714.714,0,0,1-.47-.122,1.594,1.594,0,0,0-.259-.181c-.3.1-.456.147-.475.147a.477.477,0,0,1-.328-.147l-.617-.313a1.261,1.261,0,0,1-.2-.387l-.088-.113c-.3-.059-.509-.377-.617-.95l-.113-.343a.192.192,0,0,1-.029-.127,1.424,1.424,0,0,1,.113-.441,5.2,5.2,0,0,0,.23-.788A.784.784,0,0,1,582.172,233.217Zm-5.74-2.556-.172.088a3.462,3.462,0,0,0-.338.25,3.231,3.231,0,0,1-.544.357,1.525,1.525,0,0,0-.549.715,3.355,3.355,0,0,0-.279.656.078.078,0,0,0,.088.088l.485-.215a2.432,2.432,0,0,0,.509-.328,6.5,6.5,0,0,1,.685-.49l.113-.113a.964.964,0,0,1,.264-.211,1.637,1.637,0,0,0,.353-.294l.142-.059a1.063,1.063,0,0,1,.495-.475c.166-.054.255-.113.255-.171,0-.113-.093-.171-.274-.171a.771.771,0,0,0-.343.142h-.333a1.053,1.053,0,0,0-.313.171Zm-3.012.862.3-.245a.354.354,0,0,0,.372-.357.779.779,0,0,1,.475-.573l.172-.245a4,4,0,0,1,1.18-.558,1.108,1.108,0,0,0,.328-.26.085.085,0,0,1,.059-.029l.23.059a1.537,1.537,0,0,0,.48-.1,1.847,1.847,0,0,1,.568-.1l.6-.029a.754.754,0,0,1,.24.088,1.048,1.048,0,0,0,.436.083.789.789,0,0,1,.583.289.821.821,0,0,1,.264.529,1.309,1.309,0,0,1-.46.906,1.806,1.806,0,0,1-.735.514,1.706,1.706,0,0,1-.377.308,1.256,1.256,0,0,0-.264.2.37.37,0,0,1-.225.137.1.1,0,0,1-.083-.034.107.107,0,0,0-.088-.039c-.152,0-.323.191-.5.563l-.259-.029a.727.727,0,0,0-.313.343.291.291,0,0,1-.3.186c-.357.358-.6.534-.72.534a1.1,1.1,0,0,1-.2-.059.462.462,0,0,0-.118.3c0,.118-.078.186-.23.2l-.186.176-.147-.029-.284.3a.846.846,0,0,0-.451.147c-.02.113-.044.26-.083.436s-.059.274-.059.294c0,.279.255.416.759.416l.691-.1a.945.945,0,0,0,.509-.147.987.987,0,0,1,.509-.142.881.881,0,0,0,.26-.059l.142.059a.974.974,0,0,1,.377-.387.912.912,0,0,1,.431-.172l.142-.083a.362.362,0,0,1,.171-.23l.113-.1a.341.341,0,0,1,.215-.113h.2l.059-.03a.71.71,0,0,1,.48-.436.576.576,0,0,0,.392-.206.336.336,0,0,1,.279-.171.528.528,0,0,0,.338-.2,1.858,1.858,0,0,1,.333-.309c.137-.093.23-.166.284-.211a.214.214,0,0,1,.132-.073c.059,0,.088.044.088.128s.02.132.059.132a.052.052,0,0,0,.059-.059.432.432,0,0,0-.029-.142v-.1a.28.28,0,0,1,.23-.284l.641-.416c.02-.2.079-.318.167-.347a.647.647,0,0,0,.211-.118.213.213,0,0,1,.156-.064c.122,0,.186.074.186.216l-.073.372.073.387a.4.4,0,0,1-.137.235,1.089,1.089,0,0,0-.206.46c-.049.206-.113.318-.186.333h-.088a1.186,1.186,0,0,1-.406.323.445.445,0,0,0-.24.181l-.485.558c-.093.093-.176.181-.245.259s-.117.113-.157.113l-.113-.113c0-.02-.02-.029-.059-.029-.1,0-.157.054-.181.171a.658.658,0,0,1-.147.3,1.553,1.553,0,0,0-.558.372l-.088.03h-.26c-.122,0-.211.093-.255.279a.436.436,0,0,1-.412.323.923.923,0,0,0-.48.171.344.344,0,0,1-.127.059,1.82,1.82,0,0,0-.4.23l-1.2.426a.556.556,0,0,1-.186.073l-.4.059c-.059,0-.112-.039-.171-.118s-.1-.113-.113-.113l-.26.083a1.843,1.843,0,0,1-.544.088.637.637,0,0,1-.318-.1c-.112-.063-.206-.112-.269-.142q-.419,0-.588-.646l-.172.03a4.242,4.242,0,0,1-.387-1.019.494.494,0,0,0-.274-.166.255.255,0,0,1-.186-.279,1.067,1.067,0,0,1,.279-.867q.279-.221.309-.338l.2-.744a.713.713,0,0,0,.142-.289l.333-.6C573.2,231.958,573.284,231.792,573.421,231.522Zm-9.795-1.117.211-.054.088-.191a3.7,3.7,0,0,0,1-.789.315.315,0,0,1,.132-.112.868.868,0,0,0,.211-.2,1.71,1.71,0,0,1,1.263-.534c.573,0,.877.348.916,1.048l.088.215a6.248,6.248,0,0,1,.323.818,3.761,3.761,0,0,1,.206.759,1.441,1.441,0,0,1-.245.774,5.529,5.529,0,0,0-.96,1.077l-.142.1a2.812,2.812,0,0,1-.3.514c-.191.069-.284.137-.284.216v.259a.271.271,0,0,1-.068.113,2.493,2.493,0,0,0-.176.333l-.118.172a.645.645,0,0,0-.113.235,1.02,1.02,0,0,1-.167.323.424.424,0,0,0-.108.23c0,.142.186.215.559.215a1.016,1.016,0,0,0,.215-.088l.2.059a.4.4,0,0,0,.147-.093.886.886,0,0,1,.353-.152,1.269,1.269,0,0,0,.417-.171,2.218,2.218,0,0,1,.431-.2,1.457,1.457,0,0,0,.48-.279,1.7,1.7,0,0,1,.456-.279,1.434,1.434,0,0,0,.416-.265,3.51,3.51,0,0,1,.436-.338,5.308,5.308,0,0,0,.779-.686,1.656,1.656,0,0,1,.475-.3,1.692,1.692,0,0,0,.25-.377c.147-.255.318-.382.509-.382s.3.093.3.284a.438.438,0,0,1-.142.3v.088l.029.225a.3.3,0,0,1,.024.132.333.333,0,0,1-.108.172.6.6,0,0,0-.147.294.337.337,0,0,1-.274.235c-.059.211-.132.328-.225.357a1.2,1.2,0,0,0-.377.289,6.248,6.248,0,0,1-.691.573,4.652,4.652,0,0,0-.612.509q-.162.176-.221.176a.3.3,0,0,1-.112-.054.3.3,0,0,0-.118-.059c-.059,0-.093.069-.112.2l-.059.142a.878.878,0,0,1-.216.117l-.088-.029H568.3c-.117,0-.176.039-.176.127l.088.142v.029c0,.132-.078.2-.23.2a3.1,3.1,0,0,0-.916.529l-.421.088-.343.186a.655.655,0,0,0-.215-.1l-.23.074-.416.029c-.01,0-.181-.1-.524-.289a1.232,1.232,0,0,1-.607-.573,4.594,4.594,0,0,0-.26-.578,1.041,1.041,0,0,1-.157-.411,2.905,2.905,0,0,1,.113-.98,2.857,2.857,0,0,0,.142-.441.741.741,0,0,1,.166-.308,1.306,1.306,0,0,0,.225-.539,6.53,6.53,0,0,1,.573-1.018,1.261,1.261,0,0,0,.24-.456l.191-.26a1.061,1.061,0,0,0,.083-.22c.039-.132.088-.206.142-.225a.745.745,0,0,0,.118-.26c0-.274-.127-.416-.372-.416-.049,0-.1.054-.161.152a.837.837,0,0,1-.392.3,1.556,1.556,0,0,0-.382.216,1.108,1.108,0,0,1-.3.176,1.085,1.085,0,0,0-.412.338l-.24.117c-.078.181-.147.284-.2.3s-.235.064-.529.142a.8.8,0,0,0-.142.171.38.38,0,0,1-.333.157,4.388,4.388,0,0,0-.343.407,1.189,1.189,0,0,0-.3.113l-.284.074a1.285,1.285,0,0,0-.255.274.591.591,0,0,1-.5.186c-.142,0-.216-.113-.216-.343a1.391,1.391,0,0,1,.495-1.121,1.774,1.774,0,0,1,.72-.446.323.323,0,0,0,.289-.176.463.463,0,0,1,.279-.235,1.649,1.649,0,0,0,.514-.416,1.477,1.477,0,0,1,.637-.436Zm-11.391,2.811v-.147a1.823,1.823,0,0,1,.289-.617,1.4,1.4,0,0,1,.656-.617c.02,0,.029,0,.029-.024l-.029-.23c.039-.039.132-.162.289-.372s.3-.3.441-.274a1.426,1.426,0,0,1,.4-.382,1.76,1.76,0,0,0,.446-.392l.529-.333a1.846,1.846,0,0,1,.818-.372h.215a.509.509,0,0,1,.456-.284.538.538,0,0,1,.357.083.085.085,0,0,0,.059.029,1.114,1.114,0,0,0,.171-.113.636.636,0,0,1,.387-.118,5.261,5.261,0,0,1,.647.23.49.49,0,0,1,.328-.172.475.475,0,0,1,.2.088,2.733,2.733,0,0,0,.294.152c.1.044.2.22.294.534a3.834,3.834,0,0,1,.142.524c0,.157-.122.338-.377.544a1.163,1.163,0,0,1-.71.308c-.073,0-.171-.069-.284-.2a3.536,3.536,0,0,1-.73-.216,2.03,2.03,0,0,0-.617.216h-.029l-.128-.118-.117-.024h-.029a1.7,1.7,0,0,0-.113.2,1.609,1.609,0,0,1-.392.206.635.635,0,0,0-.27.156,1.1,1.1,0,0,1-.333.225.788.788,0,0,0-.353.314,1.947,1.947,0,0,1-.416.186h-.083a5.867,5.867,0,0,1-.529.759l-.372.617c-.088.074-.191.162-.318.265s-.186.186-.186.264a.755.755,0,0,0,.03.142v.147c0,.054-.044.122-.137.206s-.137.142-.137.181l.029.314-.113.5c0,.3.216.446.646.446h.211l.617-.1c.2-.025.372-.054.5-.083a2.055,2.055,0,0,1,.23-.044,1.144,1.144,0,0,0,.23-.156h.142l.127-.029c.039-.2.314-.367.818-.5a1.031,1.031,0,0,1,.583-.377,2.082,2.082,0,0,0,.827-.524h.216a.926.926,0,0,0,.264-.166,2.274,2.274,0,0,1,.46-.264.866.866,0,0,0,.294-.172.417.417,0,0,1,.215-.127,1.1,1.1,0,0,1,.617-.5l.054-.059c.157-.132.25-.2.289-.2l.171.03c.1,0,.157-.059.182-.176s.176-.284.455-.49a1.547,1.547,0,0,1,.539-.308c.181,0,.274.093.274.284,0,.147-.083.225-.245.245a2.372,2.372,0,0,1,.157.416.6.6,0,0,1-.47.617.093.093,0,0,0-.059.083l-.029.259c.01,0,.01.01,0,.025s-.029.034-.059.064l-.211.029-.059.083a3.652,3.652,0,0,0-.734.588l-.284.3h-.044c-.1-.1-.172-.147-.23-.147-.039,0-.088.069-.142.2a2.359,2.359,0,0,1-.705.558,1.151,1.151,0,0,0-.3.23l-.289.186h-.215a.41.41,0,0,0-.078.122.82.82,0,0,1-.25.235,1.514,1.514,0,0,0-.308.279.538.538,0,0,1-.269.181l-.255-.059a.493.493,0,0,1-.475.23,1.881,1.881,0,0,0-.25.221c-.112.113-.186.166-.225.166a1.007,1.007,0,0,1-.3-.172h-.029c-.1,0-.142.073-.142.215s-.088.22-.269.23a1.11,1.11,0,0,0-.495.142h-.029a.713.713,0,0,1-.47-.122,1.6,1.6,0,0,0-.259-.181c-.3.1-.456.147-.475.147a.477.477,0,0,1-.328-.147l-.617-.313a1.261,1.261,0,0,1-.2-.387l-.088-.113c-.3-.059-.509-.377-.617-.95l-.112-.343a.192.192,0,0,1-.029-.127,1.423,1.423,0,0,1,.113-.441,5.184,5.184,0,0,0,.23-.788A.783.783,0,0,1,552.235,233.217Z"/>
    <path class="cls-10" d="M640.686,236.248l.059.328.024.029H641l.074.029a2.33,2.33,0,0,0,.431.059,1.042,1.042,0,0,0,.705-.225.778.778,0,0,1,.426-.22c.1,0,.191-.073.265-.215s.117-.216.137-.216h.2l.054-.029a.493.493,0,0,1,.294-.475.854.854,0,0,0,.416-.377,1.086,1.086,0,0,1,.279-.358.611.611,0,0,0,.216-.323l.118-.176a.318.318,0,0,0,.054-.215l.274-.514a2.457,2.457,0,0,0,.083-.558.53.53,0,0,0-.308-.475.707.707,0,0,1-.3-.676.783.783,0,0,1,.333-.607q.338-.279.338-.338c0-.059-.029-.088-.083-.088a1.761,1.761,0,0,0-.333.118c-.064.132-.406.308-1.019.529a2.3,2.3,0,0,0-.328-.142c-.054,0-.113.059-.172.171a.743.743,0,0,1-.172.245h-.186c-.02,0-.083.064-.186.186a.514.514,0,0,1-.4.186l-.172.171a.6.6,0,0,1-.289.475l-.156.186c-.093.113-.221.25-.372.4l-.26.646a1.681,1.681,0,0,0-.157.558.525.525,0,0,1-.191.181.267.267,0,0,0-.152.235.405.405,0,0,0,.1.142.339.339,0,0,1,.1.176l-.059.186-.054.529Zm4.471-.367-.676.588a.152.152,0,0,0-.113-.054c-.1,0-.215.083-.353.255s-.235.259-.294.259l-.142-.029a1.95,1.95,0,0,1-.519.318,1.794,1.794,0,0,0-.382.156,1.112,1.112,0,0,1-.4.128.468.468,0,0,0-.294.122.893.893,0,0,1-.558.108l-.231-.029a.77.77,0,0,1-.245.088.4.4,0,0,1-.245-.122.446.446,0,0,0-.279-.137.513.513,0,0,1-.308-.2,1.055,1.055,0,0,0-.294-.26.54.54,0,0,1-.22-.2l-.2-.172a1.6,1.6,0,0,1-.475-.632,1.779,1.779,0,0,1-.23-.715v-.059l.029-.274-.029-.313a.882.882,0,0,0,.142-.245V234l.348-1.146c.02-.049-.02-.112-.118-.186a.6.6,0,0,1-.284.26.26.26,0,0,0-.191.2c-.034.1-.088.157-.166.157l-.172-.059a2.32,2.32,0,0,0-.127.294.345.345,0,0,1-.338.264c-.171,0-.255-.064-.255-.2l.024-.254-.083-.363a1.191,1.191,0,0,1,.23-.45.872.872,0,0,1,.421-.387.551.551,0,0,0,.328-.274,2.159,2.159,0,0,1,.6-.539.712.712,0,0,0,.446-.372,1.709,1.709,0,0,1,.519-.26.991.991,0,0,0,.49-.294,3.955,3.955,0,0,1,.975-.6,3.138,3.138,0,0,1,1.18-.407,1.288,1.288,0,0,0,.318-.064c.132-.044.255-.083.372-.118a1.581,1.581,0,0,0,.357-.156.63.63,0,0,1,.3-.108l.416.142a3.95,3.95,0,0,1,.558.186,1.2,1.2,0,0,0,.294.122,3.61,3.61,0,0,1,.549.255.611.611,0,0,1,.279.588,2.454,2.454,0,0,0-.245.387c0,.039.108.093.328.171.078.142.191.328.343.558l.162.5.025,1.176-.025.113c-.108.1-.162.162-.162.191l.044.284-.113.4a.351.351,0,0,1-.147.245.292.292,0,0,0-.127.142l-.088.118c-.015.03-.059.113-.122.25a1.015,1.015,0,0,1-.206.323.5.5,0,0,0-.142.274.331.331,0,0,1-.147.23.534.534,0,0,0-.162.147A.4.4,0,0,1,645.157,235.881Zm-14.374-3.144.1-.186a.517.517,0,0,0,.313-.431,5.055,5.055,0,0,0,.588-.744,4.075,4.075,0,0,0,.475-.73.439.439,0,0,0-.328-.152.82.82,0,0,0-.176.059,1.466,1.466,0,0,1-.294.083,1.215,1.215,0,0,0-.318.117l-.358-.059a1.824,1.824,0,0,0-.705.416l-.328-.059c-.059,0-.152.127-.289.372l-.73.588h-.088c-.132,0-.22.122-.269.363a1.552,1.552,0,0,1-.46.436.683.683,0,0,0-.3.353v.186a1.234,1.234,0,0,0-.4.676,1.39,1.39,0,0,0-.4.617,2.289,2.289,0,0,1-.22.559,2.743,2.743,0,0,1,.088.495c.02.2.113.294.284.294a1.382,1.382,0,0,0,.916-.5,2.491,2.491,0,0,1,.245-.162,3.62,3.62,0,0,0,.6-.5,3.34,3.34,0,0,1,.421-.4c.093-.093.152-.142.172-.142l.112-.118c0-.034.044-.078.122-.127a1.563,1.563,0,0,0,.323-.294,1.1,1.1,0,0,1,.309-.264.277.277,0,0,0,.152-.122.455.455,0,0,1,.142-.152.19.19,0,0,0,.1-.157l.024-.172Zm4.99-5.823-.142.416c.122-.02.235-.147.328-.387a5.928,5.928,0,0,1,.588-.759c.127,0,.221-.078.279-.24a1.357,1.357,0,0,1,.338-.465.969.969,0,0,1,.216-.387,3.637,3.637,0,0,0,.279-.407,1.516,1.516,0,0,1,.265-.323,1.878,1.878,0,0,0,.382-.691,1.633,1.633,0,0,1,.308-.588.487.487,0,0,0,.132-.4c0-.279-.02-.416-.059-.416-.088,0-.152.054-.2.167a1.792,1.792,0,0,1-.279.421l-.49.818a4.273,4.273,0,0,0-.377.774c-.064.191-.132.3-.216.338a.826.826,0,0,0-.294.279l-.2.2a2,2,0,0,0-.117.416l-.128.118v.269a.417.417,0,0,1-.216.338c-.142.1-.215.167-.215.2Zm-10.725,9.08-.112-.73a.7.7,0,0,1,.083-.274.181.181,0,0,0,.142-.059l-.083-.259a1.391,1.391,0,0,1,.279-.867,1.874,1.874,0,0,0,.308-.495,6.188,6.188,0,0,1,.411-.842,4.927,4.927,0,0,1,.568-.911l.083-.186.118-.03a3.456,3.456,0,0,1,.93-.965,1.822,1.822,0,0,1,.49-.514,4.283,4.283,0,0,0,.387-.289.644.644,0,0,1,.3-.113l.059-.03a1.132,1.132,0,0,1,.715-.416,1.459,1.459,0,0,1,.406-.23h.157a.3.3,0,0,0,.171-.059.313.313,0,0,1,.172-.059,1.1,1.1,0,0,1,.3.118.639.639,0,0,1,.372-.23,1.037,1.037,0,0,1,.612.23,1.01,1.01,0,0,1,.4.558,1.056,1.056,0,0,0,.142.387.964.964,0,0,1,.118.147c.073,0,.176-.181.3-.534l.172-.23a2.82,2.82,0,0,0,.539-1.175.807.807,0,0,0,.088-.235,5.316,5.316,0,0,1,.3-.71,3.986,3.986,0,0,0,.6-1.234l.172-.255a.368.368,0,0,0,.191-.255.6.6,0,0,1,.088-.25q.066-.117.162-.279a1.069,1.069,0,0,1,.152-.22,1.333,1.333,0,0,0,.171-.4c.078-.225.171-.353.279-.377a1.07,1.07,0,0,0,.338-.162l.029-.1-.059-.2q0-.177.382-.6a4.833,4.833,0,0,0,.543-.71c.113-.186.3-.475.559-.862a3.522,3.522,0,0,1,.568-.705l.333-.348a.734.734,0,0,1,.642-.328.981.981,0,0,1,.661.338.952.952,0,0,1,.343.666,1.957,1.957,0,0,1-.157.529l-.03.176a1.22,1.22,0,0,1-.157.543,2.052,2.052,0,0,0-.186.485l-.8,1.969a.655.655,0,0,0-.172.083c-.25.549-.446.842-.588.891v.289c0,.1-.069.181-.2.225l-.059.029a2,2,0,0,1-.328.788,1.653,1.653,0,0,0-.294.495.381.381,0,0,1-.294.284c-.137.02-.2.206-.2.558-.039.191-.137.284-.289.284s-.235.127-.274.377-.225.382-.558.4a.319.319,0,0,0-.171.2l.112.358a2.93,2.93,0,0,1-.529.676l-.117.372c-.181.064-.328.558-.441,1.474l-.176.994.029.387-.054.2.171.588-.029.328c0,.152.059.23.172.23.059,0,.186-.088.387-.259l.2-.088a2.418,2.418,0,0,0,1.107-.891.744.744,0,0,1,.206-.113.511.511,0,0,0,.221-.157c.049-.069.088-.118.112-.147a3.666,3.666,0,0,0,1.122-1,1.075,1.075,0,0,1,.529-.519l.113-.118a.5.5,0,0,1,.284-.142c.162,0,.24.049.24.142l-.113.407a2.923,2.923,0,0,1,.142.441.569.569,0,0,1-.441.622,1.25,1.25,0,0,0-.294.431.55.55,0,0,1-.465.3,1.5,1.5,0,0,1-.441.456c-.137.073-.2.147-.2.221v.132a.905.905,0,0,1-.2.23l-.274-.059a2.125,2.125,0,0,1-.255.475.222.222,0,0,0-.127-.059.373.373,0,0,0-.328.245c-.088.161-.152.245-.186.245h-.328a1.445,1.445,0,0,0-.23.186.768.768,0,0,1-.529.142l-.446.088a1.867,1.867,0,0,1-1.156-.407,1.258,1.258,0,0,1-.563-.749,3.035,3.035,0,0,0-.235-.808l-.029-.588c-.1-.612-.225-.916-.357-.916l-.029.186-.113.059c-.059.294-.157.446-.289.446a.572.572,0,0,0-.186.142l-.088.059c-.039.015-.093.1-.167.24a2.187,2.187,0,0,1-.6.6c-.132.358-.235.534-.3.534l-.171-.118H630c-.073,0-.137.113-.186.338s-.142.338-.289.338c-.039,0-.073.064-.108.2a.328.328,0,0,1-.25.245c-.137.03-.255.162-.363.392s-.176.343-.215.343a.189.189,0,0,1-.083-.029l-.245.059a3.83,3.83,0,0,0-.206.333.784.784,0,0,0-.23.113,1.613,1.613,0,0,1-1.18.431,1.36,1.36,0,0,1-.818-.22,1.03,1.03,0,0,1-.362-.382,1.829,1.829,0,0,0-.215-.4A1.3,1.3,0,0,1,625.049,235.993Zm-3.237-1.435h.059l.142.054a.084.084,0,0,0,.059-.029.49.49,0,0,1,.23-.411.658.658,0,0,1,.323-.416c.167-.1.431-.255.8-.475l.358-.314.171-.088.118-.142a.426.426,0,0,1,.3-.186c.142,0,.215.054.215.157l-.132.289.059.47a.66.66,0,0,1-.181.46c-.118.132-.3.328-.549.588l-.735.774-.387.2a1.472,1.472,0,0,0-.259.2l-.558.475a.364.364,0,0,1-.127.3h-.23l-.118.059a1.128,1.128,0,0,1-.588.529l-.2.142a.282.282,0,0,1-.186.088l-.4-.059-.274.059a.72.72,0,0,1-.308-.113,1.863,1.863,0,0,0-.392-.181,1.322,1.322,0,0,1-.509-.529,2.535,2.535,0,0,1-.338-.612.5.5,0,0,0-.064-.191.621.621,0,0,1-.064-.166,1.465,1.465,0,0,1,.128-.284v-.029a.607.607,0,0,0-.078-.2.852.852,0,0,1-.078-.387.887.887,0,0,0-.088-.333c.078-.073.117-.132.117-.171a.442.442,0,0,0-.044-.162.489.489,0,0,1-.044-.166l.088-.7-.059-.362.029-.343c0-.2-.088-.3-.26-.3a.461.461,0,0,0-.284.157l-.1.029a2.916,2.916,0,0,0-.543.309.558.558,0,0,1-.328.122.865.865,0,0,1-.333.157l-.112.083a1.355,1.355,0,0,1-.23.171,2.966,2.966,0,0,1-.534.48c-.357.294-.681.568-.965.828a1.73,1.73,0,0,1-.622.421q-.191.037-.191.367c0,.034-.088.113-.259.23a1.745,1.745,0,0,0-.3.313,1.277,1.277,0,0,0-.26-.171c-.122,0-.215.157-.269.47-.059.127-.211.2-.46.23a.624.624,0,0,0-.1.215l-.059.059h-.142a.731.731,0,0,0-.2.162.866.866,0,0,1-.3.211c-.122.26-.23.387-.318.387a.383.383,0,0,1-.162-.059,1.082,1.082,0,0,0-.269-.1c-.1-.029-.22-.147-.348-.357a1.027,1.027,0,0,1-.2-.524q0-1.609.617-1.748l.029-.059v-.117a.272.272,0,0,1,.166-.264,1,1,0,0,0,.333-.318,1.181,1.181,0,0,1,.23-.264h.186c.039,0,.059-.1.059-.3a.222.222,0,0,1,.074-.157.363.363,0,0,0,.083-.206,1.234,1.234,0,0,1,.21-.446,1.365,1.365,0,0,0,.191-.367l-.029-.059a1.414,1.414,0,0,1-.514.362c-.1.015-.25.157-.431.416l-.23-.044a5.6,5.6,0,0,1-.749.5.823.823,0,0,0-.313.333c0,.054-.034.093-.1.113a1.726,1.726,0,0,0-.377.23h-.083c-.24,0-.362-.171-.362-.514l.3-.818a1.218,1.218,0,0,1,.612-.651,6.933,6.933,0,0,0,.808-.509,1.2,1.2,0,0,1,.661-.255l.1-.142a1.133,1.133,0,0,0,.661-.588c.113-.269.269-.4.47-.4a1.381,1.381,0,0,1,1.2.592,1.8,1.8,0,0,1,.416.931l.03.387a2.532,2.532,0,0,1-.088.563.837.837,0,0,0-.172.387c0,.073.049.113.142.113a.391.391,0,0,0,.23-.122,2.653,2.653,0,0,1,.323-.221c.117-.069.186-.122.206-.171a.836.836,0,0,1,.5-.475,1.311,1.311,0,0,0,.441-.215l.147-.113.112-.215a1.548,1.548,0,0,0,.514-.318.634.634,0,0,1,.348-.186,1.229,1.229,0,0,0,.485-.255l.215-.059.2-.118a.521.521,0,0,1,.172-.069c.093-.029.235-.078.421-.152a1.276,1.276,0,0,1,.382-.108,1.341,1.341,0,0,1,1.151.588,1.8,1.8,0,0,1,.426.945l-.029.26.054.387v.059l-.113.789.029.269a1.236,1.236,0,0,1-.289.935c-.049.015-.069.064-.069.142v.127l.284.6c.088.211.152.313.2.313l.46-.127a.56.56,0,0,0,.333-.3,2.16,2.16,0,0,0,.4-.348C621.6,234.632,621.685,234.559,621.812,234.559Zm-17.146-3.9-.172.088a3.5,3.5,0,0,0-.338.25,3.224,3.224,0,0,1-.544.357,1.527,1.527,0,0,0-.549.715,3.359,3.359,0,0,0-.279.656.078.078,0,0,0,.088.088l.485-.215a2.438,2.438,0,0,0,.509-.328,6.492,6.492,0,0,1,.685-.49l.113-.113a.966.966,0,0,1,.265-.211,1.638,1.638,0,0,0,.353-.294l.142-.059a1.064,1.064,0,0,1,.495-.475c.166-.054.255-.113.255-.171,0-.113-.093-.171-.274-.171a.772.772,0,0,0-.343.142h-.333a1.053,1.053,0,0,0-.313.171Zm-3.012.862.3-.245a.354.354,0,0,0,.372-.357.779.779,0,0,1,.475-.573l.172-.245a4,4,0,0,1,1.18-.558,1.109,1.109,0,0,0,.328-.26.085.085,0,0,1,.059-.029l.23.059a1.537,1.537,0,0,0,.48-.1,1.847,1.847,0,0,1,.568-.1l.6-.029a.752.752,0,0,1,.24.088,1.048,1.048,0,0,0,.436.083.789.789,0,0,1,.583.289.821.821,0,0,1,.265.529,1.309,1.309,0,0,1-.46.906,1.808,1.808,0,0,1-.735.514,1.708,1.708,0,0,1-.377.308,1.26,1.26,0,0,0-.265.2.37.37,0,0,1-.225.137.1.1,0,0,1-.083-.034.107.107,0,0,0-.088-.039c-.152,0-.323.191-.5.563l-.259-.029a.728.728,0,0,0-.313.343.291.291,0,0,1-.3.186c-.357.358-.6.534-.72.534a1.1,1.1,0,0,1-.2-.059.462.462,0,0,0-.118.3c0,.118-.078.186-.23.2l-.186.176-.147-.029-.284.3a.846.846,0,0,0-.45.147c-.02.113-.044.26-.083.436s-.059.274-.059.294c0,.279.255.416.759.416l.691-.1a.945.945,0,0,0,.509-.147.988.988,0,0,1,.509-.142.88.88,0,0,0,.26-.059l.142.059a.973.973,0,0,1,.377-.387.911.911,0,0,1,.431-.172l.142-.083a.362.362,0,0,1,.171-.23l.113-.1a.341.341,0,0,1,.215-.113h.2l.059-.03a.71.71,0,0,1,.48-.436.576.576,0,0,0,.392-.206.336.336,0,0,1,.279-.171.528.528,0,0,0,.338-.2,1.863,1.863,0,0,1,.333-.309c.137-.093.23-.166.284-.211a.214.214,0,0,1,.132-.073c.059,0,.088.044.088.128s.02.132.059.132a.052.052,0,0,0,.059-.059.431.431,0,0,0-.029-.142v-.1a.28.28,0,0,1,.23-.284l.641-.416c.02-.2.079-.318.167-.347a.648.648,0,0,0,.211-.118.213.213,0,0,1,.156-.064c.122,0,.186.074.186.216l-.073.372.073.387a.4.4,0,0,1-.137.235,1.086,1.086,0,0,0-.206.46c-.049.206-.113.318-.186.333h-.088a1.186,1.186,0,0,1-.406.323.445.445,0,0,0-.24.181l-.485.558c-.093.093-.176.181-.245.259s-.117.113-.157.113l-.112-.113c0-.02-.02-.029-.059-.029-.1,0-.157.054-.181.171a.658.658,0,0,1-.147.3,1.553,1.553,0,0,0-.558.372l-.088.03h-.26c-.122,0-.211.093-.255.279a.436.436,0,0,1-.412.323.924.924,0,0,0-.48.171.342.342,0,0,1-.127.059,1.82,1.82,0,0,0-.4.23l-1.2.426a.556.556,0,0,1-.186.073l-.4.059c-.059,0-.112-.039-.172-.118s-.1-.113-.112-.113l-.26.083a1.843,1.843,0,0,1-.544.088.637.637,0,0,1-.318-.1c-.112-.063-.206-.112-.269-.142q-.419,0-.588-.646l-.172.03a4.242,4.242,0,0,1-.387-1.019.494.494,0,0,0-.274-.166.255.255,0,0,1-.186-.279,1.067,1.067,0,0,1,.279-.867q.279-.221.309-.338l.2-.744a.714.714,0,0,0,.142-.289l.333-.6C601.434,231.958,601.517,231.792,601.654,231.522Z"/>
    <path class="cls-10" d="M699.518,232.4l.23-.2h.088c.069,0,.166-.073.3-.215l.142-.059a1.243,1.243,0,0,1,.509-.5l.23-.171a.487.487,0,0,1,.166-.1,1.421,1.421,0,0,0,.348-.279.655.655,0,0,1,.382-.235.759.759,0,0,1,.235.029.868.868,0,0,1,.343-.338,1.425,1.425,0,0,0,.421-.4l.191-.083a1.756,1.756,0,0,0,.411-.294.619.619,0,0,1,.47-.182,1.329,1.329,0,0,1,.872.421,1.182,1.182,0,0,1,.45.813l-.245,1.122q-.242,1.234-.543,1.293l-.059.3c-.132.1-.2.176-.2.23l.088.348c0,.044-.054.118-.157.215-.02,0-.029.029-.029.083v.588a.3.3,0,0,1-.2.26.4.4,0,0,0,.083.059.576.576,0,0,1,.387-.088l.23.029.313-.313a1.264,1.264,0,0,0,.274-.137,4.075,4.075,0,0,1,.6-.279l1.861-1.44c.255-.259.451-.387.583-.387s.211.093.211.274a1.013,1.013,0,0,1-.122.524,2.659,2.659,0,0,0-.22.5.933.933,0,0,1-.235.406,1.091,1.091,0,0,0-.225.255,1.771,1.771,0,0,1-.465.392,4.559,4.559,0,0,0-.641.524,3.143,3.143,0,0,1-.441.382l-.612.441-.088.147a1.408,1.408,0,0,1-.264.122,1.528,1.528,0,0,0-.421.235l-.26.142a.582.582,0,0,1-.279.074.509.509,0,0,0-.338.167.388.388,0,0,1-.225.147l-.215-.029-.289.088a1.019,1.019,0,0,1-.593-.294.829.829,0,0,1-.353-.627v-.083l.03-.2a1.262,1.262,0,0,0-.088-.294,2.368,2.368,0,0,1-.083-.27l.029-.2-.029-.083a1.224,1.224,0,0,1,.059-.49,1,1,0,0,0,.083-.279q.03-.184.059-.294l.069-.362a.41.41,0,0,1,.147-.225c.02-.078.054-.206.112-.392l.059-.255.142-.2a.5.5,0,0,0,.137-.308.989.989,0,0,1,.152-.412.969.969,0,0,0,.127-.259.151.151,0,0,0-.171-.172,1.283,1.283,0,0,0-.358.23l-.259-.088c-.02,0-.073.049-.157.147,0,.039-.044.064-.132.083a.432.432,0,0,0-.245.215l-.113.03-.191-.083h-.054c-.1,0-.157.1-.176.314a.7.7,0,0,1-.416.3l-.313.083a.4.4,0,0,0-.23.259.813.813,0,0,1-.289.367.667.667,0,0,1-.289.167c-.269,0-.4-.147-.4-.446l.117-.671Zm6.2-7.18-.088-.558v-.088c0-.446.152-.7.46-.744a6.19,6.19,0,0,0,.6-.186,1.033,1.033,0,0,1,.539.45,1.265,1.265,0,0,1,.279.7.417.417,0,0,1-.044.128,1.271,1.271,0,0,0-.059.382.651.651,0,0,1-.279.49.9.9,0,0,1-.563.206.88.88,0,0,1-.514-.279A.911.911,0,0,1,705.718,225.224Zm-10.113-.808.2-.059.142-.142h.029l.128.059h.029a1.357,1.357,0,0,0,.612-.137,3.064,3.064,0,0,1,.45-.2.881.881,0,0,0,.22-.083.142.142,0,0,1,.073-.029l.235.029q.11,0,.309-.411a1.579,1.579,0,0,1,.436-.592,1.935,1.935,0,0,0,.485-.705,1.13,1.13,0,0,0,.132-.22c.044-.1.083-.152.113-.152.142,0,.259-.088.343-.274q.433-.5.705-.5.36,0,.5.691l.142.544a1.37,1.37,0,0,1-.069.206.982.982,0,0,0-.063.387.87.87,0,0,1-.015.26.465.465,0,0,0-.025.152c0,.078.083.112.245.112a.87.87,0,0,0,.318-.112l.083-.03a.5.5,0,0,0,.245.088,3.69,3.69,0,0,0,.407-.147A3.526,3.526,0,0,1,702.5,223a2.014,2.014,0,0,0,.343-.113h.171l.118.04a.683.683,0,0,0,.235-.118,1.443,1.443,0,0,1,.681-.152l.2-.088h.059c.314,0,.47.142.47.416a.758.758,0,0,1-.132.3,2.008,2.008,0,0,0-.225.485l-.661.833a.878.878,0,0,1-.656.431c-.039,0-.162-.127-.362-.387,0-.02-.02-.029-.054-.029a.874.874,0,0,0-.3.059.765.765,0,0,1-.259.059c-.025,0-.279.069-.759.211l-.343.059a1.427,1.427,0,0,0-.274.059l-.73.142a1.289,1.289,0,0,0-.588.705c0,.02-.049.059-.147.128l-.646,1.175a.574.574,0,0,0-.416.372l-.054.088a.493.493,0,0,0-.289.181,1.8,1.8,0,0,1-.245.235l-.255.387c-.108.132-.211.279-.318.436a1.862,1.862,0,0,0-.23.5,1.006,1.006,0,0,1-.113.309.214.214,0,0,0-.044.157l-.044.112a.553.553,0,0,0-.172.392l.059.225c-.137.46-.2.705-.2.735a1.147,1.147,0,0,0,.029.157v.088a1.931,1.931,0,0,1-.23.788l.03.23-.088.641a2.3,2.3,0,0,0,.088.475c-.039.039-.059.069-.059.088a1.423,1.423,0,0,0,.421.882,2.209,2.209,0,0,1,.426,1.5,1.036,1.036,0,0,1-.044.25,1.989,1.989,0,0,0-.059.357.58.58,0,0,1-.221.382.6.6,0,0,1-.353.186q-.764,0-1.131-1.1a6.189,6.189,0,0,1-.377-1.42l.029-.558-.083-.289.083-1.258-.059-.3.333-1.234v-.446a1.142,1.142,0,0,1,.2-.23c0-.02-.019-.029-.059-.029-.059,0-.132.059-.23.176a1.941,1.941,0,0,1-.358.328l-.113.2a.318.318,0,0,0-.117-.059,3.216,3.216,0,0,0-.47.676.635.635,0,0,0-.475.343.534.534,0,0,1-.475.3l-.059.029c-.034.274-.171.416-.4.416l-.054.03c-.147.323-.294.48-.446.47a.937.937,0,0,1-.705.588.558.558,0,0,1-.25.259,1.14,1.14,0,0,0-.235.157.2.2,0,0,1-.132.073c-.122,0-.186-.132-.186-.4a.465.465,0,0,1,.093-.25.433.433,0,0,0,.093-.2c0-.02-.044-.078-.142-.171,0-.3.078-.485.23-.558a.778.778,0,0,0,.343-.333.446.446,0,0,1,.289-.245c.142-.044.211-.108.211-.186,0-.064.127-.2.377-.4a3.519,3.519,0,0,0,.544-.524c.113-.147.211-.22.284-.22l.059-.059c.02-.24.113-.357.274-.357l.142-.088.029-.113.083-.059h.118l.069-.054a.717.717,0,0,1,.338-.563,7.553,7.553,0,0,0,1.126-1.126,6.124,6.124,0,0,0,.916-1.185,5.251,5.251,0,0,1,.367-.7,1.863,1.863,0,0,0,.294-.823.459.459,0,0,0-.088-.118l-.617.3c0-.029-.093-.074-.284-.127a1.134,1.134,0,0,0-.318.255c-.064.088-.118.132-.157.132l-.2-.029-.632.069a2.921,2.921,0,0,0-1.278.348l-.588.172h-.128a.768.768,0,0,0-.343.142l-.333-.029a1.617,1.617,0,0,1-.676.245,1.687,1.687,0,0,1-.172-.03l-1.464.4a3.768,3.768,0,0,0-.774.588l-.113.029q-.147,0-.338-.323a1.175,1.175,0,0,1-.2-.578q0-1.425,2.444-1.651l.588-.23h.024l.162.059h.054a.689.689,0,0,0,.274-.108,3.628,3.628,0,0,1,.833-.265l.588-.161.186.029a.628.628,0,0,0,.323-.112,1.4,1.4,0,0,1,.543-.167,2.359,2.359,0,0,0,.509-.108l.23-.059a.644.644,0,0,0,.24-.1.924.924,0,0,1,.465-.1A1.022,1.022,0,0,1,695.6,224.416Zm-6.778,10.142h.059l.142.054a.084.084,0,0,0,.059-.029.49.49,0,0,1,.23-.411.658.658,0,0,1,.323-.416c.167-.1.431-.255.8-.475l.358-.314.171-.088.118-.142a.426.426,0,0,1,.3-.186c.142,0,.215.054.215.157l-.132.289.059.47a.66.66,0,0,1-.181.46c-.118.132-.3.328-.549.588l-.735.774-.387.2a1.473,1.473,0,0,0-.259.2l-.558.475a.364.364,0,0,1-.127.3h-.23l-.118.059a1.128,1.128,0,0,1-.588.529l-.2.142a.283.283,0,0,1-.186.088l-.4-.059-.274.059a.72.72,0,0,1-.308-.113,1.868,1.868,0,0,0-.392-.181,1.323,1.323,0,0,1-.509-.529,2.531,2.531,0,0,1-.338-.612.5.5,0,0,0-.064-.191.622.622,0,0,1-.064-.166,1.467,1.467,0,0,1,.128-.284v-.029a.607.607,0,0,0-.079-.2.853.853,0,0,1-.078-.387.889.889,0,0,0-.088-.333c.078-.073.117-.132.117-.171a.443.443,0,0,0-.044-.162.489.489,0,0,1-.044-.166l.088-.7-.059-.362.029-.343c0-.2-.088-.3-.26-.3a.462.462,0,0,0-.284.157l-.1.029a2.918,2.918,0,0,0-.543.309.558.558,0,0,1-.328.122.865.865,0,0,1-.333.157l-.112.083a1.355,1.355,0,0,1-.23.171,2.966,2.966,0,0,1-.534.48c-.357.294-.681.568-.965.828a1.729,1.729,0,0,1-.622.421q-.191.037-.191.367c0,.034-.088.113-.259.23a1.742,1.742,0,0,0-.3.313,1.276,1.276,0,0,0-.26-.171c-.122,0-.216.157-.269.47-.059.127-.211.2-.46.23a.626.626,0,0,0-.1.215l-.059.059h-.142a.733.733,0,0,0-.2.162.867.867,0,0,1-.3.211c-.122.26-.23.387-.318.387a.382.382,0,0,1-.161-.059,1.085,1.085,0,0,0-.269-.1c-.1-.029-.221-.147-.348-.357a1.026,1.026,0,0,1-.2-.524q0-1.609.617-1.748l.03-.059v-.117a.272.272,0,0,1,.166-.264,1,1,0,0,0,.333-.318,1.182,1.182,0,0,1,.23-.264h.186c.039,0,.059-.1.059-.3a.223.223,0,0,1,.073-.157.362.362,0,0,0,.083-.206,1.232,1.232,0,0,1,.21-.446,1.365,1.365,0,0,0,.191-.367l-.029-.059a1.414,1.414,0,0,1-.514.362c-.1.015-.25.157-.431.416l-.23-.044a5.6,5.6,0,0,1-.749.5.824.824,0,0,0-.313.333c0,.054-.034.093-.1.113a1.726,1.726,0,0,0-.377.23h-.083c-.24,0-.362-.171-.362-.514l.3-.818a1.217,1.217,0,0,1,.612-.651,6.926,6.926,0,0,0,.808-.509,1.2,1.2,0,0,1,.661-.255l.1-.142a1.133,1.133,0,0,0,.661-.588c.113-.269.269-.4.47-.4a1.382,1.382,0,0,1,1.2.592,1.8,1.8,0,0,1,.416.931l.029.387a2.526,2.526,0,0,1-.088.563.838.838,0,0,0-.171.387c0,.073.049.113.142.113a.391.391,0,0,0,.23-.122,2.655,2.655,0,0,1,.323-.221c.117-.069.186-.122.206-.171a.835.835,0,0,1,.5-.475,1.31,1.31,0,0,0,.441-.215l.147-.113.112-.215a1.549,1.549,0,0,0,.514-.318.633.633,0,0,1,.348-.186,1.228,1.228,0,0,0,.485-.255l.215-.059.2-.118a.52.52,0,0,1,.172-.069c.093-.029.235-.078.421-.152a1.275,1.275,0,0,1,.382-.108,1.341,1.341,0,0,1,1.151.588,1.8,1.8,0,0,1,.426.945l-.029.26.054.387v.059l-.113.789.029.269a1.235,1.235,0,0,1-.289.935c-.049.015-.069.064-.069.142v.127l.284.6c.088.211.152.313.2.313l.46-.127a.56.56,0,0,0,.333-.3,2.154,2.154,0,0,0,.4-.348C688.612,234.632,688.7,234.559,688.827,234.559Zm-20.265,1.69.059.328.024.029h.23l.074.029a2.332,2.332,0,0,0,.431.059,1.042,1.042,0,0,0,.705-.225.778.778,0,0,1,.426-.22c.1,0,.191-.073.264-.215s.117-.216.137-.216h.2l.054-.029a.493.493,0,0,1,.294-.475.855.855,0,0,0,.416-.377,1.085,1.085,0,0,1,.279-.358.611.611,0,0,0,.215-.323l.118-.176a.318.318,0,0,0,.054-.215l.274-.514a2.453,2.453,0,0,0,.083-.558.53.53,0,0,0-.308-.475.707.707,0,0,1-.3-.676.783.783,0,0,1,.333-.607q.338-.279.338-.338c0-.059-.029-.088-.083-.088a1.762,1.762,0,0,0-.333.118c-.064.132-.406.308-1.019.529a2.3,2.3,0,0,0-.328-.142c-.054,0-.113.059-.171.171a.747.747,0,0,1-.172.245h-.186c-.019,0-.083.064-.186.186a.513.513,0,0,1-.4.186l-.172.171a.6.6,0,0,1-.289.475l-.157.186c-.093.113-.22.25-.372.4l-.26.646a1.681,1.681,0,0,0-.157.558.525.525,0,0,1-.191.181.267.267,0,0,0-.152.235.405.405,0,0,0,.1.142.338.338,0,0,1,.1.176l-.059.186-.054.529Zm4.471-.367-.676.588a.153.153,0,0,0-.113-.054c-.1,0-.215.083-.353.255s-.235.259-.294.259l-.142-.029a1.95,1.95,0,0,1-.519.318,1.8,1.8,0,0,0-.382.156,1.11,1.11,0,0,1-.4.128.468.468,0,0,0-.294.122.893.893,0,0,1-.558.108l-.23-.029a.772.772,0,0,1-.245.088.4.4,0,0,1-.245-.122.446.446,0,0,0-.279-.137.513.513,0,0,1-.308-.2,1.055,1.055,0,0,0-.294-.26.541.541,0,0,1-.22-.2l-.2-.172a1.6,1.6,0,0,1-.475-.632,1.78,1.78,0,0,1-.23-.715v-.059l.029-.274-.029-.313a.881.881,0,0,0,.142-.245V234l.348-1.146c.02-.049-.02-.112-.118-.186a.6.6,0,0,1-.284.26.259.259,0,0,0-.191.2c-.034.1-.088.157-.166.157l-.172-.059a2.3,2.3,0,0,0-.127.294.344.344,0,0,1-.338.264c-.172,0-.255-.064-.255-.2l.024-.254-.083-.363a1.19,1.19,0,0,1,.23-.45.871.871,0,0,1,.421-.387.551.551,0,0,0,.328-.274,2.158,2.158,0,0,1,.6-.539.711.711,0,0,0,.446-.372,1.71,1.71,0,0,1,.519-.26.991.991,0,0,0,.49-.294,3.957,3.957,0,0,1,.975-.6,3.139,3.139,0,0,1,1.18-.407,1.288,1.288,0,0,0,.318-.064c.132-.044.255-.083.372-.118a1.582,1.582,0,0,0,.357-.156.631.631,0,0,1,.3-.108l.416.142a3.953,3.953,0,0,1,.558.186,1.2,1.2,0,0,0,.294.122,3.607,3.607,0,0,1,.548.255.611.611,0,0,1,.279.588,2.448,2.448,0,0,0-.245.387c0,.039.108.093.328.171.078.142.191.328.343.558l.161.5.025,1.176-.025.113c-.108.1-.161.162-.161.191l.044.284-.113.4a.351.351,0,0,1-.147.245.291.291,0,0,0-.127.142l-.088.118c-.015.03-.059.113-.122.25a1.012,1.012,0,0,1-.206.323.5.5,0,0,0-.142.274.331.331,0,0,1-.147.23.534.534,0,0,0-.162.147A.4.4,0,0,1,673.033,235.881Zm-16.142-2.664v-.147a1.822,1.822,0,0,1,.289-.617,1.4,1.4,0,0,1,.656-.617c.02,0,.029,0,.029-.024l-.029-.23c.039-.039.132-.162.289-.372s.3-.3.441-.274a1.426,1.426,0,0,1,.4-.382,1.758,1.758,0,0,0,.446-.392l.529-.333a1.846,1.846,0,0,1,.818-.372h.216a.509.509,0,0,1,.456-.284.538.538,0,0,1,.357.083.085.085,0,0,0,.059.029,1.114,1.114,0,0,0,.171-.113.636.636,0,0,1,.387-.118,5.259,5.259,0,0,1,.646.23.49.49,0,0,1,.328-.172.475.475,0,0,1,.2.088,2.749,2.749,0,0,0,.294.152c.1.044.2.22.294.534a3.838,3.838,0,0,1,.142.524c0,.157-.122.338-.377.544a1.163,1.163,0,0,1-.71.308c-.073,0-.171-.069-.284-.2a3.538,3.538,0,0,1-.73-.216,2.027,2.027,0,0,0-.617.216h-.029l-.128-.118-.117-.024h-.029a1.685,1.685,0,0,0-.113.2,1.61,1.61,0,0,1-.392.206.636.636,0,0,0-.27.156,1.1,1.1,0,0,1-.333.225.789.789,0,0,0-.353.314,1.942,1.942,0,0,1-.416.186h-.083a5.876,5.876,0,0,1-.529.759l-.372.617c-.088.074-.191.162-.318.265s-.186.186-.186.264a.758.758,0,0,0,.029.142v.147c0,.054-.044.122-.137.206s-.137.142-.137.181l.029.314-.113.5c0,.3.216.446.647.446h.211l.617-.1c.2-.025.372-.054.5-.083a2.055,2.055,0,0,1,.23-.044,1.144,1.144,0,0,0,.23-.156h.142l.127-.029c.039-.2.314-.367.818-.5a1.031,1.031,0,0,1,.583-.377,2.082,2.082,0,0,0,.827-.524h.216a.926.926,0,0,0,.265-.166,2.271,2.271,0,0,1,.46-.264.867.867,0,0,0,.294-.172.417.417,0,0,1,.216-.127,1.1,1.1,0,0,1,.617-.5l.054-.059c.157-.132.25-.2.289-.2l.171.03c.1,0,.157-.059.181-.176s.176-.284.455-.49a1.549,1.549,0,0,1,.539-.308c.181,0,.274.093.274.284,0,.147-.083.225-.245.245a2.379,2.379,0,0,1,.157.416.6.6,0,0,1-.47.617.093.093,0,0,0-.059.083l-.029.259c.01,0,.01.01,0,.025s-.029.034-.059.064l-.211.029-.059.083a3.651,3.651,0,0,0-.734.588l-.284.3h-.044c-.1-.1-.172-.147-.23-.147-.039,0-.088.069-.142.2a2.36,2.36,0,0,1-.705.558,1.15,1.15,0,0,0-.3.23l-.289.186h-.216a.411.411,0,0,0-.078.122.82.82,0,0,1-.25.235,1.52,1.52,0,0,0-.308.279.538.538,0,0,1-.269.181l-.255-.059a.493.493,0,0,1-.475.23,1.88,1.88,0,0,0-.25.221c-.112.113-.186.166-.225.166a1.01,1.01,0,0,1-.3-.172h-.029c-.1,0-.142.073-.142.215s-.088.22-.269.23a1.109,1.109,0,0,0-.495.142h-.029a.714.714,0,0,1-.47-.122,1.59,1.59,0,0,0-.259-.181c-.3.1-.456.147-.475.147a.477.477,0,0,1-.328-.147l-.617-.313a1.261,1.261,0,0,1-.2-.387l-.088-.113c-.3-.059-.509-.377-.617-.95l-.113-.343a.192.192,0,0,1-.029-.127,1.424,1.424,0,0,1,.113-.441,5.206,5.206,0,0,0,.23-.788A.783.783,0,0,1,656.891,233.217Z"/>
    <path class="cls-10" d="M758.424,234.113l.117.118a1.039,1.039,0,0,1,.318.45,1.159,1.159,0,0,0,.152.343.6.6,0,0,1,.117.323q0,.059-.176.264a2.134,2.134,0,0,0-.279.911c-.069.465-.314.7-.725.7a.942.942,0,0,1-.759-.274.551.551,0,0,1-.323-.063,1.605,1.605,0,0,1-.26-.451,2.009,2.009,0,0,0-.3-.514.517.517,0,0,1-.122-.372.937.937,0,0,1,.23-.6,1.767,1.767,0,0,0,.328-.578c.3-.294.5-.451.6-.46a.822.822,0,0,0,.269-.054.633.633,0,0,1,.25-.044.835.835,0,0,1,.558.3m4.192-9.7-.142.117-.392.7a.587.587,0,0,1-.113.186l-.191.26a1.244,1.244,0,0,1-.245.49.937.937,0,0,0-.2.362.575.575,0,0,1-.137.279,1.631,1.631,0,0,0-.211.578l-.318.96-.186.24v.176c0,.054-.078.132-.23.225v.5a3.442,3.442,0,0,0-.328.558l-.127.96a2.84,2.84,0,0,1-.416,1.508l-.181.171a.291.291,0,0,1-.289.157c-.073,0-.24-.127-.5-.387l-.171-.059a1.2,1.2,0,0,1-.48-.543,1.692,1.692,0,0,1-.235-.8,1.424,1.424,0,0,1,.137-.725.991.991,0,0,0,.147-.338l.734-1.92a9.045,9.045,0,0,1,.931-1.89l.2-.563.142-.171.142-.558c.039-.039.1-.088.186-.157a3.005,3.005,0,0,1,.416-.955,1.4,1.4,0,0,0,.289-.563c.054-.22.127-.357.215-.4s.152-.2.206-.46a.675.675,0,0,1,.539-.519l-.088-.186v-.024a1.115,1.115,0,0,1,.181-.26,5.133,5.133,0,0,0,.519-1.22c.23-.661.519-.989.872-.989.181,0,.441.235.783.71a2.221,2.221,0,0,1,.509,1.053,1.886,1.886,0,0,1-.563,1.107,6.87,6.87,0,0,0-.867,1.244,5.939,5.939,0,0,0-.387.842A.666.666,0,0,1,762.616,224.411Zm-12.973,9.7.117.118a1.038,1.038,0,0,1,.318.45,1.157,1.157,0,0,0,.152.343.6.6,0,0,1,.117.323q0,.059-.176.264a2.134,2.134,0,0,0-.279.911c-.069.465-.314.7-.725.7a.942.942,0,0,1-.759-.274.552.552,0,0,1-.323-.063,1.6,1.6,0,0,1-.26-.451,2.009,2.009,0,0,0-.3-.514.517.517,0,0,1-.122-.372.936.936,0,0,1,.23-.6,1.767,1.767,0,0,0,.328-.578c.3-.294.5-.451.6-.46a.821.821,0,0,0,.269-.054.633.633,0,0,1,.25-.044A.835.835,0,0,1,749.643,234.113Zm4.192-9.7-.142.117-.392.7a.589.589,0,0,1-.113.186l-.191.26a1.244,1.244,0,0,1-.245.49.936.936,0,0,0-.2.362.576.576,0,0,1-.137.279,1.634,1.634,0,0,0-.211.578l-.318.96-.186.24v.176c0,.054-.079.132-.23.225v.5a3.451,3.451,0,0,0-.328.558l-.127.96a2.839,2.839,0,0,1-.416,1.508l-.181.171a.291.291,0,0,1-.289.157c-.073,0-.24-.127-.5-.387l-.172-.059a1.2,1.2,0,0,1-.48-.543,1.693,1.693,0,0,1-.235-.8,1.425,1.425,0,0,1,.137-.725.99.99,0,0,0,.147-.338l.734-1.92a9.051,9.051,0,0,1,.931-1.89l.2-.563.142-.171.142-.558c.039-.039.1-.088.186-.157a3.006,3.006,0,0,1,.416-.955,1.4,1.4,0,0,0,.289-.563c.054-.22.127-.357.216-.4s.152-.2.206-.46a.675.675,0,0,1,.539-.519l-.088-.186v-.024a1.12,1.12,0,0,1,.181-.26,5.132,5.132,0,0,0,.519-1.22c.23-.661.519-.989.872-.989.181,0,.441.235.784.71a2.221,2.221,0,0,1,.509,1.053,1.886,1.886,0,0,1-.563,1.107,6.87,6.87,0,0,0-.867,1.244,5.934,5.934,0,0,0-.387.842A.666.666,0,0,1,753.835,224.411Zm-12.959,12.111.274.2a.541.541,0,0,1,.2.5.406.406,0,0,1-.073.2,2.27,2.27,0,0,0-.127.245c-.333.661-.725.989-1.175.989a1.324,1.324,0,0,1-.671-.387,1.947,1.947,0,0,1-.583-.705,1.514,1.514,0,0,0-.2-.4.24.24,0,0,1-.078-.147.636.636,0,0,1,.122-.343,1.3,1.3,0,0,0,.176-.465.587.587,0,0,1,.308-.416,1.34,1.34,0,0,0,.367-.269.392.392,0,0,1,.3-.127.339.339,0,0,1,.23.1,2.083,2.083,0,0,0,.323.206,1.247,1.247,0,0,1,.421.465Zm-7.2,0,.274.2a.541.541,0,0,1,.2.5.4.4,0,0,1-.073.2,2.3,2.3,0,0,0-.127.245c-.333.661-.725.989-1.176.989a1.324,1.324,0,0,1-.671-.387,1.947,1.947,0,0,1-.583-.705,1.518,1.518,0,0,0-.2-.4.239.239,0,0,1-.078-.147.635.635,0,0,1,.122-.343,1.3,1.3,0,0,0,.176-.465.587.587,0,0,1,.308-.416,1.341,1.341,0,0,0,.367-.269.392.392,0,0,1,.3-.127.339.339,0,0,1,.23.1,2.09,2.09,0,0,0,.323.206,1.245,1.245,0,0,1,.421.465Zm-11.562-.274.059.328.024.029h.23l.074.029a2.33,2.33,0,0,0,.431.059,1.042,1.042,0,0,0,.705-.225.778.778,0,0,1,.426-.22c.1,0,.191-.073.265-.215s.117-.216.137-.216h.2l.054-.029a.493.493,0,0,1,.294-.475.854.854,0,0,0,.416-.377,1.087,1.087,0,0,1,.279-.358.611.611,0,0,0,.216-.323l.118-.176a.318.318,0,0,0,.054-.215l.274-.514a2.457,2.457,0,0,0,.083-.558.53.53,0,0,0-.308-.475.707.707,0,0,1-.3-.676.783.783,0,0,1,.333-.607q.338-.279.338-.338c0-.059-.029-.088-.083-.088a1.764,1.764,0,0,0-.333.118c-.064.132-.406.308-1.019.529a2.3,2.3,0,0,0-.328-.142c-.054,0-.113.059-.172.171a.744.744,0,0,1-.172.245h-.186c-.02,0-.083.064-.186.186a.513.513,0,0,1-.4.186l-.172.171a.6.6,0,0,1-.289.475l-.156.186c-.093.113-.221.25-.372.4l-.26.646a1.681,1.681,0,0,0-.157.558.526.526,0,0,1-.191.181.267.267,0,0,0-.152.235.406.406,0,0,0,.1.142.339.339,0,0,1,.1.176l-.059.186-.054.529Zm4.471-.367-.676.588a.152.152,0,0,0-.112-.054c-.1,0-.215.083-.353.255s-.235.259-.294.259L725,236.9a1.95,1.95,0,0,1-.519.318,1.794,1.794,0,0,0-.382.156,1.112,1.112,0,0,1-.4.128.469.469,0,0,0-.294.122.892.892,0,0,1-.558.108l-.231-.029a.771.771,0,0,1-.245.088.4.4,0,0,1-.245-.122.446.446,0,0,0-.279-.137.513.513,0,0,1-.308-.2,1.055,1.055,0,0,0-.294-.26.541.541,0,0,1-.22-.2l-.2-.172a1.6,1.6,0,0,1-.475-.632,1.78,1.78,0,0,1-.23-.715v-.059l.03-.274-.03-.313a.881.881,0,0,0,.142-.245V234l.348-1.146c.02-.049-.019-.112-.118-.186a.6.6,0,0,1-.284.26.26.26,0,0,0-.191.2c-.034.1-.088.157-.166.157l-.172-.059a2.32,2.32,0,0,0-.127.294.345.345,0,0,1-.338.264c-.172,0-.255-.064-.255-.2l.024-.254-.083-.363a1.191,1.191,0,0,1,.23-.45.872.872,0,0,1,.421-.387.551.551,0,0,0,.328-.274,2.159,2.159,0,0,1,.6-.539.711.711,0,0,0,.446-.372,1.71,1.71,0,0,1,.519-.26.99.99,0,0,0,.49-.294,3.957,3.957,0,0,1,.975-.6,3.139,3.139,0,0,1,1.18-.407,1.288,1.288,0,0,0,.318-.064c.132-.044.255-.083.372-.118a1.582,1.582,0,0,0,.358-.156.63.63,0,0,1,.3-.108l.416.142a3.956,3.956,0,0,1,.558.186,1.2,1.2,0,0,0,.294.122,3.607,3.607,0,0,1,.548.255.611.611,0,0,1,.279.588,2.448,2.448,0,0,0-.245.387c0,.039.108.093.328.171.078.142.191.328.343.558l.162.5.025,1.176-.025.113c-.108.1-.162.162-.162.191l.044.284-.113.4a.351.351,0,0,1-.147.245.292.292,0,0,0-.127.142l-.088.118c-.015.03-.059.113-.122.25a1.016,1.016,0,0,1-.206.323.5.5,0,0,0-.142.274.331.331,0,0,1-.147.23.533.533,0,0,0-.162.147A.4.4,0,0,1,726.581,235.881Zm-13.678,2.8-.431.059a.472.472,0,0,0-.24-.118c-.039,0-.069.029-.088.088a1.432,1.432,0,0,1-.759.387,2.289,2.289,0,0,0-.8.323.736.736,0,0,1-.353.176c-.093.01-.142.029-.142.059a1.491,1.491,0,0,0-.216.2,1.117,1.117,0,0,0-.289.181.607.607,0,0,1-.3.147c-.171.377-.3.563-.372.563a.883.883,0,0,1-.147-.029h-.024a1.21,1.21,0,0,1-.289.431.532.532,0,0,0-.171.161.965.965,0,0,1-.279.24.626.626,0,0,0-.279.436.9.9,0,0,1-.181.416.8.8,0,0,0-.137.48l-.083.2a2.522,2.522,0,0,0-.122.495c-.054.274-.078.416-.078.426a.471.471,0,0,0,.172.358.378.378,0,0,1,.24-.1l.847-.343c.029-.02.137-.108.318-.265a1.615,1.615,0,0,1,.48-.308.953.953,0,0,0,.382-.26.964.964,0,0,1,.279-.284.436.436,0,0,0,.191-.289c.221-.191.421-.372.6-.539a1.551,1.551,0,0,0,.353-.416.752.752,0,0,1,.25-.279l.059-.186a.692.692,0,0,1,.122-.034q.1-.022.308-.47l.387-.642a2.592,2.592,0,0,0,.558-.877l.2-.171c.039-.02.059-.064.059-.132Zm-.23-4.579.171-.24a.54.54,0,0,1,.294-.176.59.59,0,0,0,.338-.24,2.109,2.109,0,0,1,.818-.72l.142-.1c.142-.279.274-.431.387-.455a.476.476,0,0,0,.3-.26.8.8,0,0,0,.127-.363c0-.039-.029-.059-.088-.059a.568.568,0,0,0-.348.113.482.482,0,0,1-.211.118l-.284-.03c-.176.1-.411.211-.72.343l-.26.215a.873.873,0,0,1-.308.147.3.3,0,0,0-.206.176c-.049.1-.113.152-.186.152l-.118.059c-.034.039-.147.059-.328.059a1.267,1.267,0,0,0-.294.24c-.1.108-.162.161-.181.161a1.622,1.622,0,0,1-.563.441.493.493,0,0,0-.308.245.818.818,0,0,0-.46.323,1.529,1.529,0,0,1-.338.348.866.866,0,0,0-.264.235l-.142.112a1.122,1.122,0,0,0-.24.382,1.406,1.406,0,0,0-.152.451c0,.059.034.088.1.088a1.493,1.493,0,0,0,.539-.211,2.718,2.718,0,0,0,.509-.318c.074-.079.128-.118.157-.118l.544.03a.449.449,0,0,1,.294-.245.512.512,0,0,0,.323-.245,1.491,1.491,0,0,1,.646-.4l.157-.259Zm-4.942,11.954-.23.157a.557.557,0,0,1-.3.088.906.906,0,0,1-.7-.475,1.654,1.654,0,0,1-.338-.975,3.212,3.212,0,0,1,.181-1.283,2.488,2.488,0,0,0,.206-.568c0-.01.1-.245.309-.71a5.285,5.285,0,0,1,.583-1.053,6.884,6.884,0,0,0,.456-.676l.059-.118a1.568,1.568,0,0,1,.416-.47c0-.059.186-.259.553-.6a12.906,12.906,0,0,1,1.038-.867l.147-.2a1.508,1.508,0,0,1,.4-.215l.833-.23a5.289,5.289,0,0,1,.558-.446h.113l.387-.112a4.442,4.442,0,0,1,.984-.27c.441-.078.691-.176.754-.284s.108-.215.152-.308.142-.3.309-.6c.039-.161.073-.294.1-.387s.059-.157.093-.172a.77.77,0,0,0,.161-.284,3.623,3.623,0,0,1,.23-.421.026.026,0,0,0,.029-.029l-.083-.245a.8.8,0,0,1,.235-.421c.083-.054.122-.088.122-.108l-.1-.26.245-.529a.052.052,0,0,0-.059-.059,3.471,3.471,0,0,1-.886.529,3.246,3.246,0,0,1-.313.348.523.523,0,0,0-.333.3l-.113.029-.083.147c0,.02-.034.039-.1.068a4.59,4.59,0,0,0-.4.23l-.172-.029c-.039,0-.083.1-.142.289a1.051,1.051,0,0,1-.465.353.513.513,0,0,0-.279.152l-.112.142-.142-.029c-.2,0-.3.078-.3.23a.464.464,0,0,1-.171.3.642.642,0,0,0-.284.083h-.216a.649.649,0,0,1-.514.387l-.416.289-.24.088a2.258,2.258,0,0,0-.343.206,1.189,1.189,0,0,1-.588.152,2.4,2.4,0,0,0-.617-.22c-.274-.073-.47-.539-.588-1.4h-.029a.48.48,0,0,0-.25.088.489.489,0,0,1-.191.083c-.23,0-.348-.093-.348-.284a.815.815,0,0,1,.49-.847l.357-.446.921-.9q.963-.962,1.293-1.234c.221-.181.46-.357.715-.529l.734-.49a2.6,2.6,0,0,1,.46-.264.5.5,0,0,0,.181-.093,2.078,2.078,0,0,1,.524-.215l.26-.118a4.426,4.426,0,0,1,1.033-.269l.2.029a.486.486,0,0,0,.3-.117,1.265,1.265,0,0,0,.617-.314l.514-.142a1.181,1.181,0,0,1,.362-.073h.27q.3,0,.4.47c.064.313.118.475.166.475.02,0,.073-.073.172-.215l.2-.147a.853.853,0,0,1,.27-.142.4.4,0,0,1,.431.289v.024l.059.074a6.332,6.332,0,0,1,.127.847,1.75,1.75,0,0,1-.294,1.077,2.311,2.311,0,0,0-.348.544,8.9,8.9,0,0,1-.578,1.749c-.044.108-.162.382-.343.833l-.142.142a.094.094,0,0,0-.059.088l.029.2a1.31,1.31,0,0,0-.245.617,1.4,1.4,0,0,1-.23.529,1.476,1.476,0,0,0,.255.152,1.946,1.946,0,0,1,.5.46.974.974,0,0,1,.279.509,4.816,4.816,0,0,1-.157.558,1.561,1.561,0,0,1-.876.387.887.887,0,0,1-.416-.186l-.088.029v-.059a1.068,1.068,0,0,1-.294-.108.452.452,0,0,0-.211-.064.1.1,0,0,0-.113.118.258.258,0,0,0,.029.113,2.666,2.666,0,0,0-.23.215,2.466,2.466,0,0,1-.2.421,1.684,1.684,0,0,1-.363.509c-.211.01-.353.172-.431.475a1.165,1.165,0,0,1-.27.588l-.147-.059a4.719,4.719,0,0,1-.975,1.41c-.2.044-.3.083-.308.1s-.015.088-.029.186a1.118,1.118,0,0,1-.343.475q-.324.324-.382.324l-.142.029-.088.088c.01.191-.24.495-.759.916-.279.152-.426.26-.446.313-.073.186-.357.4-.847.646l-.269.245a1.309,1.309,0,0,1-.372.245Z"/>
  </g>
</svg>
