<!-- Generator: Adobe Illustrator 22.0.1, SVG Export Plug-In  -->
<svg version="1.1"
	 xmlns="http://www.w3.org/2000/svg" xmlns:xlink="http://www.w3.org/1999/xlink" xmlns:a="http://ns.adobe.com/AdobeSVGViewerExtensions/3.0/"
	 x="0px" y="0px" width="1783.617px" height="2268.802px" viewBox="0 0 1783.617 2268.802"
	 style="enable-background:new 0 0 1783.617 2268.802;" xml:space="preserve">
<style type="text/css">
	.st0{fill:#55FFFF;}
</style>
<defs>
</defs>
<polygon class="st0" points="86.704,533.836 0,787.408 334.428,1054.325 458.291,1267.86 458.291,1454.702 490.211,1565.319 
	458.291,1654.891 309.656,1654.891 491.32,1881.771 491.32,1988.538 681.243,2121.997 681.243,2268.802 792.719,2268.802 
	854.65,2015.23 855.048,1694.928 978.512,1708.274 1077.602,1588.161 1238.623,1548.123 1388.072,1401.319 1659.755,1347.935 
	1783.617,1227.822 1684.527,1054.325 1473.961,889.679 1560.665,800.753 1548.279,693.986 1548.279,533.836 1473.961,613.911 
	1388.072,600.565 1226.237,653.949 1127.147,533.836 953.74,533.836 792.719,387.031 891.809,240.226 891.809,67.705 
	792.719,67.705 631.698,0 433.518,0 371.587,120.113 235.338,120.113 322.042,240.226 297.27,377.714 "/>
</svg>