<!-- Generator: Adobe Illustrator 22.0.1, SVG Export Plug-In  -->
<svg version="1.1"
	 xmlns="http://www.w3.org/2000/svg" xmlns:xlink="http://www.w3.org/1999/xlink" xmlns:a="http://ns.adobe.com/AdobeSVGViewerExtensions/3.0/"
	 x="0px" y="0px" width="1861.986px" height="1858.15px" viewBox="0 0 1861.986 1858.15"
	 style="enable-background:new 0 0 1861.986 1858.15;" xml:space="preserve">
<style type="text/css">
	.st0{fill:#666666;stroke:#FFFFFF;stroke-width:10;stroke-miterlimit:10;}
</style>
<defs>
</defs>
<polygon class="st0" points="69.506,1002.004 5.577,1284.478 126.321,1378.635 126.321,1676.802 247.065,1614.03 340.977,1755.522 
	434.889,1676.802 542.218,1378.763 662.962,1378.763 555.633,1676.802 823.954,1676.802 917.866,1543.412 1172.77,1676.802 
	1266.682,1676.802 1414.258,1543.412 1481.338,1676.802 1628.914,1676.802 1789.906,1676.802 1856.986,1833.731 1856.986,1503.631 
	1736.242,1347.25 1682.578,1111.855 1669.162,1002.004 1602.082,782.431 1602.082,625.373 1602.082,405.672 1508.17,280.128 
	1387.426,13.348 1320.346,201.664 1132.522,201.664 1105.69,405.672 958.114,499.83 944.698,625.373 676.378,735.224 
	488.553,641.066 340.977,766.61 220.233,923.54 "/>
</svg>