<!-- Generator: Adobe Illustrator 22.0.1, SVG Export Plug-In  -->
<svg version="1.1"
	 xmlns="http://www.w3.org/2000/svg" xmlns:xlink="http://www.w3.org/1999/xlink" xmlns:a="http://ns.adobe.com/AdobeSVGViewerExtensions/3.0/"
	 x="0px" y="0px" width="1709.3px" height="1548.123px" viewBox="0 0 1709.3 1548.123"
	 style="enable-background:new 0 0 1709.3 1548.123;" xml:space="preserve">
<style type="text/css">
	.st0{fill:#FF0000;}
</style>
<defs>
</defs>
<polygon class="st0" points="59.022,840.791 0,1081.017 111.476,1161.093 111.476,1414.664 222.952,1361.281 309.656,1481.611 
	396.359,1414.664 495.449,1161.201 606.925,1161.201 507.835,1414.664 755.56,1414.664 842.264,1301.224 1077.602,1414.664 
	1164.306,1414.664 1300.554,1301.224 1362.485,1414.664 1498.734,1414.664 1647.369,1414.664 1709.3,1548.123 1709.3,1267.393 
	1597.824,1134.401 1548.279,934.212 1535.893,840.791 1473.961,654.057 1473.961,520.49 1473.961,333.647 1387.258,226.88 
	1275.782,0 1213.851,160.151 1040.443,160.151 1015.671,333.647 879.422,413.723 867.036,520.49 619.312,613.911 445.904,533.836 
	309.656,640.603 198.18,774.062 "/>
</svg>