<!-- Generator: Adobe Illustrator 22.0.1, SVG Export Plug-In  -->
<svg version="1.1"
	 xmlns="http://www.w3.org/2000/svg" xmlns:xlink="http://www.w3.org/1999/xlink" xmlns:a="http://ns.adobe.com/AdobeSVGViewerExtensions/3.0/"
	 x="0px" y="0px" width="1943.755px" height="2677.803px" viewBox="0 0 1943.755 2677.803"
	 style="enable-background:new 0 0 1943.755 2677.803;" xml:space="preserve">
<style type="text/css">
	.st0{fill:#666666;stroke:#FFFFFF;stroke-width:10;stroke-miterlimit:10;}
</style>
<defs>
</defs>
<polygon class="st0" points="99.667,632.718 5.755,930.885 367.987,1244.744 502.148,1495.831 502.148,1715.533 536.722,1845.603 
	502.148,1950.927 341.155,1950.927 537.924,2217.707 537.924,2343.251 743.636,2500.18 743.636,2672.803 864.38,2672.803 
	931.46,2374.637 931.891,1998.006 1065.62,2013.699 1172.948,1872.462 1347.356,1825.383 1509.23,1652.761 1803.5,1589.989 
	1937.661,1448.752 1830.333,1244.744 1602.26,1051.142 1696.172,946.578 1682.756,821.034 1682.756,632.718 1602.26,726.876 
	1509.23,711.183 1333.94,773.955 1226.612,632.718 1038.788,632.718 864.38,460.096 971.708,287.473 971.708,84.612 864.38,84.612 
	689.972,5 475.316,5 408.236,146.237 260.659,146.237 354.572,287.473 327.739,449.141 "/>
</svg>