<!-- Generator: Adobe Illustrator 22.0.1, SVG Export Plug-In  -->
<svg version="1.1"
	 xmlns="http://www.w3.org/2000/svg" xmlns:xlink="http://www.w3.org/1999/xlink" xmlns:a="http://ns.adobe.com/AdobeSVGViewerExtensions/3.0/"
	 x="0px" y="0px" width="1634.982px" height="1655.108px" viewBox="0 0 1634.982 1655.108"
	 style="enable-background:new 0 0 1634.982 1655.108;" xml:space="preserve">
<style type="text/css">
	.st0{fill:#FFFF4E;}
</style>
<defs>
</defs>
<path class="st0" d="M1257.58,626.791h129.678h148.635V493.798l99.09,132.993v160.617l-247.725,60.057l-95.653,113.44
	l154.676,106.767l126.77,40.038l-185.793,120.113v146.805l-210.566,66.263l-111.476,214.218H941.354l-111.476-98.572l-178.92,98.572
	l-440.392-347.21v-200.188L0,947.558c0,0,278.69-240.226,74.317-253.572l272.497-67.196l74.317-132.993l74.317,132.993h111.476
	L557.38,413.723h93.577l67.444-173.497L693.629,0l309.656,160.151l12.386,240.226l61.931,280.264l161.021,53.384L1257.58,626.791z"
	/>
</svg>