<!-- Generator: Adobe Illustrator 22.0.1, SVG Export Plug-In  -->
<svg version="1.1"
	 xmlns="http://www.w3.org/2000/svg" xmlns:xlink="http://www.w3.org/1999/xlink" xmlns:a="http://ns.adobe.com/AdobeSVGViewerExtensions/3.0/"
	 x="0px" y="0px" width="1783.482px" height="1961.355px" viewBox="0 0 1783.482 1961.355"
	 style="enable-background:new 0 0 1783.482 1961.355;" xml:space="preserve">
<style type="text/css">
	.st0{fill:#666666;stroke:#FFFFFF;stroke-width:10;stroke-miterlimit:10;}
</style>
<defs>
</defs>
<path class="st0" d="M1369.702,746.057h140.459h160.992V589.676l107.328,156.381v188.864l-268.32,70.618l-103.605,133.39
	l167.536,125.544l137.31,47.079l-201.24,141.237v172.623l-228.072,77.917l-120.744,251.891h-134.16l-120.744-115.907
	l-193.795,115.907l-477.006-408.272v-235.394L7.569,1123.236c0,0,301.86-282.473,80.496-298.166l295.152-79.013l80.496-156.381
	l80.496,156.381h120.744l-53.664-250.539h101.357l73.051-204.008L758.865,9.036l335.4,188.316l13.416,282.473l67.08,329.552
	l174.408,62.772L1369.702,746.057z"/>
</svg>